<?xml version="1.0" encoding="UTF-8"?>
<svg version="1.1" xmlns="http://www.w3.org/2000/svg" width="1024" height="1024">
<path d="M0 0 C337.92 0 675.84 0 1024 0 C1024 337.92 1024 675.84 1024 1024 C686.08 1024 348.16 1024 0 1024 C0 686.08 0 348.16 0 0 Z " fill="#141E2B" transform="translate(0,0)"/>
<path d="M0 0 C0.99 0 1.98 0 3 0 C4.6575326 2.0285766 6.11060036 4.01828774 7.5625 6.1875 C8.45642709 7.47918591 9.3523098 8.76952027 10.25 10.05859375 C10.93449219 11.04641846 10.93449219 11.04641846 11.6328125 12.05419922 C17.23145807 20.02227157 23.31711625 27.56641659 29.9140625 34.73046875 C31.84154676 36.8276005 33.70761357 38.96376355 35.5625 41.125 C42.39437391 48.92615579 49.86666032 55.57669231 58 62 C59.51787109 63.20849609 59.51787109 63.20849609 61.06640625 64.44140625 C79.7538046 79.17753947 100.30444147 90.58882262 121.4375 101.4375 C156.24680288 119.3074728 189.64116581 139.87816693 215.23046875 169.9375 C231.00599984 188.65725652 231.00599984 188.65725652 253 198 C251.29314307 196.43588733 249.58444032 194.87378883 247.875 193.3125 C247.37379639 192.85423828 246.87259277 192.39597656 246.35620117 191.92382812 C243.73292482 189.53617539 241.08551644 187.21173118 238.3125 185 C237.549375 184.34 236.78625 183.68 236 183 C236 182.34 236 181.68 236 181 C237.11375 180.525625 238.2275 180.05125 239.375 179.5625 C256.2079963 170.98271882 263.26630444 153.70952472 270.9201355 137.55831909 C280.95655959 116.40525313 292.56887714 97.93690195 315.2734375 88.91015625 C326.92662866 85.02019416 338.65188327 86.83779969 350 91 C359.25038957 95.63092613 365.91711205 101.60718285 371.38500977 110.28491211 C376.09167192 117.74384569 381.01986848 123.10591197 387.9296875 128.5625 C390.68024592 130.74614943 393.2369454 132.98749695 395.75 135.4375 C396.36359375 136.03433594 396.9771875 136.63117188 397.609375 137.24609375 C399.1462702 139.18448123 399.47888152 140.61523619 400 143 C398.81664062 143.10957031 397.63328125 143.21914062 396.4140625 143.33203125 C380.83160902 144.85597145 367.20139729 147.4999911 355.94921875 159.4140625 C349.20100247 168.36660594 344.96075812 179.01327266 343 190 C342.83483887 190.91563721 342.66967773 191.83127441 342.49951172 192.7746582 C342.00842355 195.94560925 341.73418226 199.05219409 341.53515625 202.25390625 C341.41817383 204.0318457 341.41817383 204.0318457 341.29882812 205.84570312 C341.14302333 208.29608764 340.9893284 210.74660735 340.83789062 213.19726562 C338.45818578 249.04761583 326.52190984 275.70293507 302 302 C301.27554687 302.79019531 300.55109375 303.58039063 299.8046875 304.39453125 C292.81758157 311.72507121 284.8835651 317.63939039 276.74243164 323.62475586 C275.02571378 324.97970496 273.51227821 326.42266508 272 328 C272.78761719 328.60585938 273.57523438 329.21171875 274.38671875 329.8359375 C275.16547363 330.43498901 275.16547363 330.43498901 275.95996094 331.04614258 C277.1311608 331.94705281 278.30238555 332.84793069 279.47363281 333.7487793 C282.36970502 335.97631967 285.26538171 338.20436688 288.16015625 340.43359375 C294.99979362 345.69950925 301.8521917 350.94845037 308.7109375 356.18945312 C312.89696787 359.38899067 317.07686722 362.59616062 321.25 365.8125 C334.59741998 376.08102635 347.97838755 386.29248607 361.56616211 396.24169922 C367.16509202 400.35282258 372.64792543 404.56974804 378 409 C377.67 409.66 377.34 410.32 377 411 C366.89431737 412.25573571 357.65225019 413.1890787 349.15209961 406.80517578 C346.15425367 404.29059009 343.22893162 401.70848487 340.33935547 399.0703125 C336.26997365 395.46893932 331.90728529 392.25868825 327.5625 389 C325.78630325 387.64864131 324.01026099 386.29707954 322.234375 384.9453125 C316.51929367 380.62204144 310.74213766 376.38565422 304.95996094 372.15283203 C298.7356015 367.58023171 292.63206009 362.86565534 286.55126953 358.10449219 C281.16501263 353.89121091 275.7246582 349.759573 270.24047852 345.67480469 C266.48366541 342.87317592 262.74877893 340.04621357 259.03515625 337.1875 C242.04811289 324.11834908 224.56324625 311.90738091 206.67553711 300.10644531 C205.11411513 299.07535622 203.55688668 298.03792445 202 297 C197.21017481 297.21848325 193.54693658 299.85484377 189.625 302.375 C188.92165527 302.82125732 188.21831055 303.26751465 187.49365234 303.72729492 C180.77204318 308.0466097 174.36728978 312.74976812 167.97460938 317.53613281 C165.20947551 319.58605154 162.40922937 321.5854459 159.60961914 323.58789062 C149.48938989 330.83226318 139.58797145 338.34712201 129.71289062 345.92089844 C125.12760156 349.43496626 120.53260879 352.93628822 115.9375 356.4375 C115.04828857 357.11530518 114.15907715 357.79311035 113.24291992 358.49145508 C107.93952718 362.53134986 102.61722705 366.54365095 97.27734375 370.53515625 C82.14880152 381.88279368 67.12925412 393.38986772 52.25 405.0625 C51.640354 405.54050049 51.03070801 406.01850098 50.40258789 406.51098633 C47.60989983 408.6500109 47.60989983 408.6500109 45 411 C43.43827255 411.08685603 41.87270656 411.10702219 40.30859375 411.09765625 C39.36435547 411.09443359 38.42011719 411.09121094 37.44726562 411.08789062 C36.45404297 411.07951172 35.46082031 411.07113281 34.4375 411.0625 C33.44041016 411.05798828 32.44332031 411.05347656 31.41601562 411.04882812 C28.94395151 411.03700007 26.47200482 411.02051849 24 411 C24 408 24 408 26 405.8125 C26.66 405.214375 27.32 404.61625 28 404 C26.65808594 403.85304688 26.65808594 403.85304688 25.2890625 403.703125 C12.65361486 402.14053233 2.9395093 399.42934746 -5.3828125 389.3203125 C-7.25291521 386.69170659 -8 385.27765422 -8 382 C-6.94683594 381.97421875 -5.89367187 381.9484375 -4.80859375 381.921875 C11.07694508 381.85629472 11.07694508 381.85629472 25 376 C24.06800781 376.02320313 23.13601563 376.04640625 22.17578125 376.0703125 C3.79861141 376.33045444 -11.97996583 373.83057369 -26 361 C-31.52216791 354.68144972 -36 348.65251345 -36 340 C-31.82241185 340.49345365 -27.67675894 341.03882386 -23.53125 341.75390625 C-0.42381077 345.57535154 24.02482392 345.76490713 47 341 C47.98516602 340.79600586 48.97033203 340.59201172 49.98535156 340.38183594 C91.87818977 331.45214936 126.68317139 313.13368431 158 284 C157.24203125 284.2165625 156.4840625 284.433125 155.703125 284.65625 C137.10624857 289.20028316 116.20594191 289.10199152 98 283 C96.90945313 282.63777344 95.81890625 282.27554687 94.6953125 281.90234375 C85.44131562 278.42915154 76.3593745 272.67510715 70 265 C70 264.01 70 263.02 70 262 C70.92280762 261.91697632 70.92280762 261.91697632 71.86425781 261.83227539 C74.65980996 261.57892518 77.45489762 261.32076306 80.25 261.0625 C81.21808594 260.97548828 82.18617188 260.88847656 83.18359375 260.79882812 C84.11816406 260.71181641 85.05273438 260.62480469 86.015625 260.53515625 C86.87446289 260.456604 87.73330078 260.37805176 88.61816406 260.29711914 C90.81641589 260.02290097 92.86718545 259.58933034 95 259 C93.741875 258.85304688 92.48375 258.70609375 91.1875 258.5546875 C71.37727945 256.04339579 51.45005406 250.140635 38.33203125 233.84375 C37.48511188 232.73453356 36.64526576 231.61988157 35.8125 230.5 C35.38775391 229.94441406 34.96300781 229.38882813 34.52539062 228.81640625 C28 220.19030667 28 220.19030667 28 215 C34.40961538 215.87403846 34.40961538 215.87403846 37.3984375 216.51171875 C44.23190865 217.89211908 50.864875 218.18689743 57.8125 218.1875 C59.15562256 218.18858765 59.15562256 218.18858765 60.52587891 218.18969727 C65.44899635 218.14884723 70.14614219 217.82773837 75 217 C73.8140625 216.70867187 72.628125 216.41734375 71.40625 216.1171875 C45.83190772 209.70499274 21.40122902 200.55940395 6.88720703 177.14208984 C1.97737266 168.82730717 -1.1795885 160.9058453 -1.0625 151.1875 C-1.05347656 150.21167969 -1.04445313 149.23585937 -1.03515625 148.23046875 C-1.02355469 147.49441406 -1.01195312 146.75835937 -1 146 C2.89907201 146.64362672 5.59971893 148.5434569 8.875 150.6875 C19.93902622 157.67704479 31.13471806 161.77106058 44 164 C42.87078125 163.45085937 42.87078125 163.45085937 41.71875 162.890625 C16.81953055 150.19927528 -4.02177667 130.50835155 -14.10546875 104.10546875 C-16.92427901 94.6432653 -18.62088922 80.11290902 -14 71 C-11 71 -11 71 -9.4921875 72.43359375 C-8.69167969 73.42552734 -8.69167969 73.42552734 -7.875 74.4375 C2.93676888 87.25395103 15.32406092 97.01417369 30 105 C27.14846114 101.32615691 24.095596 97.97704889 20.875 94.625 C2.48421084 74.84739489 -8.18256097 50.55114147 -7.39453125 23.4375 C-6.93709041 15.02639732 -4.97960547 6.9488701 0 0 Z " fill="#F4F4F4" transform="translate(312,52)"/>
<path d="M0 0 C2.26714308 0.87052464 3.91414419 1.93109497 5.85913086 3.38500977 C6.96321289 4.20388672 6.96321289 4.20388672 8.08959961 5.03930664 C8.88108398 5.63678711 9.67256836 6.23426758 10.48803711 6.84985352 C11.32206055 7.47182617 12.15608398 8.09379883 13.01538086 8.73461914 C20.11887936 14.04638699 27.1663885 19.43254425 34.21044922 24.82275391 C39.94636977 29.20612697 45.72664675 33.52169469 51.55053711 37.78735352 C58.27550917 42.71300194 64.93101489 47.7209034 71.55053711 52.78735352 C79.04580024 58.52312311 86.59468023 64.17634254 94.20727539 69.75537109 C100.14233848 74.10653698 106.03394841 78.51250558 111.88964844 82.9699707 C112.49703857 83.42919922 113.10442871 83.88842773 113.73022461 84.36157227 C114.25342285 84.75948975 114.77662109 85.15740723 115.31567383 85.56738281 C117.09673462 86.9245082 117.09673462 86.9245082 119.62348938 87.78005981 C122.05053711 89.78735352 122.05053711 89.78735352 122.50496674 91.62495518 C122.66939716 94.13729581 122.66813573 96.60662722 122.61816406 99.12402344 C122.6188942 100.08031143 122.61962433 101.03659943 122.62037659 102.02186584 C122.6168887 105.1877585 122.57796989 108.35218615 122.53881836 111.51782227 C122.52949453 113.71071061 122.52237639 115.90360936 122.51737976 118.09651184 C122.49827627 123.87210781 122.44914589 129.64707645 122.39385986 135.42242432 C122.34274002 141.31416334 122.31988121 147.20600359 122.29467773 153.09790039 C122.24103098 164.66132727 122.15567712 176.22428826 122.05053711 187.78735352 C122.651847 187.78206823 123.25315689 187.77678295 123.87268829 187.77133751 C124.67037376 187.76722673 125.46805923 187.76311596 126.28991699 187.75888062 C127.07685188 187.75359533 127.86378677 187.74831005 128.67456818 187.74286461 C132.3407155 187.8115115 135.90083518 188.32799455 139.51928711 188.88891602 C140.69932312 189.06448029 140.69932312 189.06448029 141.90319824 189.24359131 C144.4534875 189.62581602 147.00201901 190.01850574 149.55053711 190.41235352 C150.42194336 190.54474426 151.29334961 190.67713501 152.19116211 190.8135376 C169.54364374 193.44994466 186.80903814 196.50710912 204.05053711 199.78735352 C204.05053711 200.77735352 204.05053711 201.76735352 204.05053711 202.78735352 C184.54489326 202.90304997 165.05535621 202.81395934 145.55444336 202.34985352 C144.61856825 202.32779594 143.68269314 202.30573837 142.71845818 202.28301239 C138.78968865 202.19036679 134.86092785 202.09735948 130.93217754 202.00390244 C87.99407406 200.98947345 45.06289237 200.53604383 2.11303711 200.53735352 C1.12207999 200.5373233 1.12207999 200.5373233 0.11110353 200.53729248 C-43.28417902 200.53861548 -86.65994184 201.04562501 -130.04296875 202.07543945 C-133.94407949 202.16744303 -137.8452029 202.25888393 -141.74633789 202.34985352 C-142.67463472 202.37168953 -143.60293156 202.39352554 -144.5593586 202.41602325 C-165.02261536 202.88890382 -185.48194608 202.89140596 -205.94946289 202.78735352 C-205.94946289 201.79735352 -205.94946289 200.80735352 -205.94946289 199.78735352 C-191.91667773 197.23027951 -177.84018756 194.95393876 -163.75341797 192.71582031 C-161.15923087 192.30253913 -158.56548358 191.88648838 -155.97216797 191.46777344 C-152.18298378 190.85603136 -148.39258301 190.25242195 -144.60180664 189.65063477 C-143.44962143 189.46318192 -142.29743622 189.27572906 -141.1103363 189.08259583 C-140.02462845 188.91209213 -138.93892059 188.74158844 -137.8203125 188.56591797 C-136.876754 188.41508255 -135.9331955 188.26424713 -134.96104431 188.10884094 C-131.26114828 187.71387568 -127.66973742 187.73752527 -123.94946289 187.78735352 C-124.01941216 186.01781311 -124.01941216 186.01781311 -124.09077454 184.21252441 C-124.51852253 173.03479578 -124.83219968 161.85874678 -125.0375185 150.67465973 C-125.14664637 144.92536172 -125.29427565 139.18272048 -125.53369141 133.43725586 C-127.16881567 93.16215406 -127.16881567 93.16215406 -119.49780273 84.35180664 C-115.25738676 80.68804225 -110.76394669 78.19493694 -105.62251282 76.01377869 C-101.30266713 74.03178522 -97.70373034 71.16583388 -93.94946289 68.28735352 C-92.48264173 67.22947373 -91.01294539 66.17555923 -89.53930664 65.12719727 C-84.46058968 61.45892893 -79.48508764 57.6594616 -74.51196289 53.84985352 C-63.98228267 45.78370659 -53.31703698 37.91423831 -42.61547852 30.07836914 C-32.2324607 22.47109544 -21.92940234 14.77112826 -11.71362305 6.94018555 C-10.8736377 6.29678223 -10.03365234 5.65337891 -9.16821289 4.99047852 C-8.42506836 4.41974609 -7.68192383 3.84901367 -6.91625977 3.26098633 C-2.23812142 -0.24413322 -2.23812142 -0.24413322 0 0 Z " fill="#F4F4F4" transform="translate(512.949462890625,366.212646484375)"/>
<path d="M0 0 C1.12106895 0.00067978 1.12106895 0.00067978 2.26478577 0.00137329 C3.04877747 -0.00198532 3.83276917 -0.00534393 4.64051819 -0.00880432 C7.25283873 -0.0183592 9.86509527 -0.02026097 12.47743225 -0.02133179 C14.29855373 -0.02454582 16.11967496 -0.02791 17.9407959 -0.03141785 C21.77519832 -0.0374236 25.60957819 -0.03925673 29.44398499 -0.03866577 C34.31544046 -0.03856511 39.18674699 -0.0521102 44.05816746 -0.06943798 C47.83072547 -0.0806699 51.60324906 -0.08258143 55.37582207 -0.08205605 C57.16843609 -0.08322351 58.96105138 -0.0875745 60.75364876 -0.09538841 C89.56329816 -0.20901657 116.0775387 4.41948513 137.6688385 24.93569946 C145.15616632 32.82593281 151.19559646 43.57768442 153.786026 54.14663696 C154.06188538 55.20366821 154.33774475 56.26069946 154.6219635 57.34976196 C159.51905179 77.74680858 156.73154271 99.78528088 146.036026 117.95913696 C142.15796565 123.90015046 137.79352315 129.1302455 132.786026 134.14663696 C132.17372131 134.77054321 131.56141663 135.39444946 130.93055725 136.03726196 C116.19906697 149.98349157 94.9618386 156.3273359 75.02088928 156.27603149 C73.74892448 156.27865997 73.74892448 156.27865997 72.45126343 156.28134155 C69.66960052 156.28571635 66.88800197 156.28283914 64.1063385 156.27944946 C62.16817716 156.28012338 60.23001591 156.28109414 58.29185486 156.28234863 C54.24205211 156.28381935 50.19227148 156.28168977 46.14247131 156.27700806 C40.94017863 156.27128822 35.73793728 156.27460792 30.53564644 156.28058052 C26.53981637 156.28418355 22.54399861 156.28304914 18.54816818 156.28045273 C16.6287269 156.27978392 14.70928451 156.28061027 12.78984451 156.28293228 C10.11813107 156.28545703 7.44650261 156.28162181 4.77479553 156.27603149 C3.97587387 156.27805573 3.17695221 156.28007996 2.3538208 156.28216553 C-3.0997066 156.26090436 -3.0997066 156.26090436 -4.213974 155.14663696 C-4.35512561 152.47604845 -4.25644507 149.82231459 -4.213974 147.14663696 C-3.55010681 147.10925415 -2.88623962 147.07187134 -2.20225525 147.03335571 C4.92196289 146.7038232 4.92196289 146.7038232 10.786026 143.14663696 C13.10262838 136.5822643 13.07228052 129.73720135 13.04481506 122.86294556 C13.0483197 121.77072189 13.05182434 120.67849823 13.05543518 119.55317688 C13.06418956 115.96707681 13.05842637 112.3811763 13.051651 108.79507446 C13.05299926 106.29121869 13.05494114 103.78736318 13.05744934 101.2835083 C13.0607679 95.37765325 13.05379927 89.47186992 13.0431478 83.56602538 C13.03456349 78.19512643 13.04063948 72.82432246 13.050421 67.45342958 C13.06061418 61.6212367 13.05950571 55.78909482 13.05365753 49.95689774 C13.05232533 47.48419806 13.05395368 45.01149493 13.05861664 42.53879929 C13.06370491 39.08295352 13.05593953 35.62736588 13.04481506 32.17153931 C13.04886353 31.15421219 13.05291199 30.13688507 13.05708313 29.08872986 C13.0577827 19.84775802 13.0577827 19.84775802 8.848526 11.89663696 C4.41529505 9.36336213 -0.26409067 8.29091822 -5.213974 7.14663696 C-5.59530699 5.15523136 -5.92722982 3.15384619 -6.213974 1.14663696 C-4.49306431 -0.57427272 -2.29531403 0.01446806 0 0 Z " fill="#F3F3F4" transform="translate(204.21397399902344,608.8533630371094)"/>
<path d="M0 0 C15.93856098 9.25200714 24.7422585 24.38390584 30.2734375 41.4609375 C36.55023945 65.52201164 36.04958542 92.81078477 23.35302734 114.59570312 C17.5779301 123.90952738 9.49374794 129.86628173 -0.90625 133.19921875 C-12.80157992 135.98430305 -23.91211877 135.12050278 -34.71875 129.32421875 C-48.05066725 120.66401211 -54.81499581 107.92495961 -59.53125 93.07421875 C-59.7382251 92.42517578 -59.9452002 91.77613281 -60.15844727 91.10742188 C-62.33709714 83.87889091 -62.87770321 76.70303317 -62.95703125 69.1953125 C-62.96913887 68.0670681 -62.96913887 68.0670681 -62.98149109 66.91603088 C-62.9952289 65.33198274 -63.00599638 63.74790628 -63.01391602 62.16381836 C-63.02538222 60.5748602 -63.04574831 58.98593891 -63.07543945 57.3972168 C-63.40938548 39.45181543 -60.21459422 21.60443043 -47.51953125 7.8828125 C-34.58629157 -3.31103269 -16.08223471 -7.25227356 0 0 Z " fill="#141E2B" transform="translate(479.71875,621.67578125)"/>
<path d="M0 0 C1.32257813 1.10214844 1.32257813 1.10214844 2.671875 2.2265625 C3.38859375 2.81695313 4.1053125 3.40734375 4.84375 4.015625 C19.24730748 17.09405519 27.79269369 38.30573581 28.8515625 57.48046875 C29.35072387 82.29988109 21.70660261 104.51081935 4.4296875 122.5703125 C-6.11921337 132.66958808 -18.40006062 138.39968219 -32.328125 142.2265625 C-32.96282715 142.41130127 -33.5975293 142.59604004 -34.25146484 142.78637695 C-41.51407107 144.68395994 -48.86279024 144.66651655 -56.328125 144.6640625 C-57.3602562 144.66566376 -57.3602562 144.66566376 -58.41323853 144.66729736 C-69.42640898 144.64262391 -79.13275513 143.58939388 -89.328125 139.2265625 C-90.39160156 138.79214844 -91.45507812 138.35773438 -92.55078125 137.91015625 C-111.39346496 129.37624401 -124.62630617 114.35567622 -132.23046875 95.30859375 C-140.22614805 72.85809208 -139.12082561 48.88835296 -129.328125 27.2265625 C-128.90917969 26.29328125 -128.49023438 25.36 -128.05859375 24.3984375 C-124.13021633 16.47375683 -118.50674138 10.42255895 -112.328125 4.2265625 C-111.60753906 3.48277344 -110.88695312 2.73898437 -110.14453125 1.97265625 C-80.97519186 -26.20415363 -30.44871706 -24.0850963 0 0 Z M-80.328125 1.2265625 C-80.99714844 1.67128906 -81.66617188 2.11601563 -82.35546875 2.57421875 C-92.36927236 10.09004947 -98.42537288 24.38549467 -100.94213867 36.31738281 C-101.74699186 42.38356286 -101.62120114 48.51794499 -101.58886719 54.62719727 C-101.57819561 57.0232095 -101.58877996 59.41846439 -101.6015625 61.81445312 C-101.61409973 73.61443594 -100.67808706 84.68362528 -96.578125 95.8515625 C-96.31572021 96.57593506 -96.05331543 97.30030762 -95.78295898 98.04663086 C-93.59797038 103.8791355 -90.9968698 109.16814164 -87.328125 114.2265625 C-86.81765625 114.93039062 -86.3071875 115.63421875 -85.78125 116.359375 C-79.58728261 124.11658178 -70.23062907 130.53589107 -60.328125 132.2265625 C-47.19454523 133.4205243 -35.2346401 131.38904244 -24.60546875 123.2578125 C-13.06552897 112.9648988 -6.58611 98.55534265 -5.328125 83.2265625 C-3.90396484 54.94681076 -6.77504216 30.00724248 -25.765625 7.8515625 C-33.04157764 0.0831596 -41.63581578 -4.57026355 -52.37890625 -5.27734375 C-54.13235741 -5.32181414 -55.88661664 -5.34076239 -57.640625 -5.3359375 C-59.02048584 -5.33231201 -59.02048584 -5.33231201 -60.42822266 -5.32861328 C-68.19565587 -5.11920054 -73.94564529 -3.32634313 -80.328125 1.2265625 Z " fill="#F3F4F4" transform="translate(518.328125,623.7734375)"/>
<path d="M0 0 C18.87360319 0.03842133 35.03258103 3.42970232 49.16186523 16.84130859 C63.76816297 32.20391948 70.14086201 49.29928932 69.95092773 70.25537109 C69.9625293 71.52767578 69.97413086 72.79998047 69.98608398 74.11083984 C69.95121563 85.48954626 68.3224158 96.30566019 63.07592773 106.50537109 C62.73335938 107.1742334 62.39079102 107.8430957 62.0378418 108.53222656 C55.43211097 120.72854712 45.51236724 127.58794069 32.72045898 132.47021484 C25.92556976 134.43693433 19.03909998 134.58551445 12.01342773 134.63037109 C10.79623047 134.66130859 10.79623047 134.66130859 9.55444336 134.69287109 C4.11877967 134.7279682 0.39659907 133.93066174 -4.42407227 131.38037109 C-8.40297289 127.40147047 -8.54747399 122.63724667 -8.55778503 117.2368927 C-8.56205002 116.22321121 -8.566315 115.20952972 -8.57070923 114.16513062 C-8.57025604 113.06416046 -8.56980286 111.96319031 -8.56933594 110.82885742 C-8.57269455 109.66091141 -8.57605316 108.49296539 -8.57951355 107.28962708 C-8.58901027 103.43054135 -8.59096568 99.57149903 -8.59204102 95.71240234 C-8.59444159 93.71070635 -8.59684383 91.70901034 -8.59950143 89.70731467 C-8.60763282 83.41937518 -8.61008668 77.13145 -8.609375 70.84350586 C-8.60877296 64.3524453 -8.61935293 57.8614675 -8.63511866 51.37042791 C-8.64817505 45.79666496 -8.65355978 40.22292916 -8.65291959 34.64915103 C-8.65266425 31.32023848 -8.6564495 27.99141654 -8.66609764 24.66251564 C-8.67583815 20.95617297 -8.67304361 17.25004694 -8.66699219 13.54370117 C-8.67261169 12.43665833 -8.6782312 11.32961548 -8.684021 10.18902588 C-8.67982651 9.18380386 -8.67563202 8.17858185 -8.67131042 7.14289856 C-8.67212758 5.82802318 -8.67212758 5.82802318 -8.67296124 4.48658466 C-8.07418503 -0.5805365 -4.22320163 0.07654842 0 0 Z " fill="#141E2B" transform="translate(257.424072265625,619.61962890625)"/>
<path d="M0 0 C1.20432253 0.00138269 1.20432253 0.00138269 2.43297482 0.00279331 C3.810751 0.00073132 3.810751 0.00073132 5.21636105 -0.00137234 C6.73981388 0.00402058 6.73981388 0.00402058 8.29404354 0.00952244 C9.35732876 0.00937641 10.42061398 0.00923038 11.51611996 0.00907993 C15.04945535 0.00977958 18.58273878 0.0175744 22.11606503 0.02539158 C24.55844246 0.02725557 27.00082026 0.02867956 29.4431982 0.0296793 C35.88600342 0.03350594 42.32878626 0.04333746 48.7715826 0.05438328 C55.34018304 0.06459427 61.90878707 0.06917625 68.47739315 0.0742197 C81.37649127 0.0849596 94.27557383 0.10184679 107.17465878 0.12304783 C107.81892111 5.07467146 108.29637665 9.80572938 108.27231503 14.81054783 C108.26748104 16.59912205 108.26748104 16.59912205 108.2625494 18.42382908 C108.24998104 20.25494236 108.24998104 20.25494236 108.23715878 22.12304783 C108.23264706 23.37472752 108.22813534 24.6264072 108.2234869 25.91601658 C108.21177293 28.98507724 108.1953695 32.0540369 108.17465878 35.12304783 C105.53465878 35.12304783 102.89465878 35.12304783 100.17465878 35.12304783 C99.84852596 34.31480564 99.52239315 33.50656345 99.18637753 32.67382908 C98.74938534 31.60519627 98.31239315 30.53656345 97.86215878 29.43554783 C97.43290096 28.37980564 97.00364315 27.32406345 96.56137753 26.23632908 C93.78724497 19.85327452 93.78724497 19.85327452 88.36215878 15.87304783 C87.71633846 15.55851658 87.07051815 15.24398533 86.40512753 14.91992283 C81.25233216 13.07899419 75.79084264 12.89054569 70.36997128 12.58789158 C69.72729305 12.54958225 69.08461483 12.51127293 68.42246151 12.47180271 C66.04839845 12.33122028 63.67400853 12.19620202 61.29965878 12.06054783 C53.31778378 11.59648533 53.31778378 11.59648533 45.17465878 11.12304783 C45.17465878 30.26304783 45.17465878 49.40304783 45.17465878 69.12304783 C49.98028378 69.01992283 54.78590878 68.91679783 59.73715878 68.81054783 C61.23964169 68.78565281 62.7421246 68.76075779 64.29013729 68.73510838 C65.49081844 68.70199558 66.6914996 68.66888279 67.92856503 68.63476658 C69.14874325 68.6085825 70.36892147 68.58239841 71.62607479 68.55542088 C75.76876911 68.05065915 78.46802298 67.01498252 82.17465878 65.12304783 C83.75328959 63.03795213 83.75328959 63.03795213 84.48715878 60.62304783 C85.54966955 57.73840318 86.43948723 55.72580515 88.17465878 53.12304783 C91.23715878 52.87304783 91.23715878 52.87304783 94.17465878 53.12304783 C96.30495416 55.25334321 95.33887864 60.06267513 95.34262753 63.01367283 C95.34762012 64.35881962 95.34762012 64.35881962 95.35271358 65.73114109 C95.3577883 67.63439514 95.36012174 69.53765812 95.35996151 71.44091892 C95.36213913 74.34683152 95.38026441 77.25235918 95.39926815 80.15820408 C95.40220377 82.00585903 95.40418744 83.85351579 95.40512753 85.70117283 C95.41231304 86.5690543 95.41949856 87.43693577 95.42690182 88.33111668 C95.41040419 92.71338227 95.23120788 96.13526818 93.17465878 100.12304783 C91.19465878 100.12304783 89.21465878 100.12304783 87.17465878 100.12304783 C86.94391659 99.30320408 86.7131744 98.48336033 86.47544003 97.63867283 C84.55784131 91.02730734 84.55784131 91.02730734 80.73715878 85.43554783 C76.16942884 83.09597884 71.63232739 82.96872673 66.56137753 82.80664158 C65.31420956 82.76474705 64.06704159 82.72285252 62.78208065 82.67968845 C61.48850643 82.64037205 60.19493221 82.60105564 58.86215878 82.56054783 C57.54924862 82.51736423 56.23633846 82.47418064 54.88364315 82.42968845 C51.6474159 82.32377556 48.4111142 82.22169897 45.17465878 82.12304783 C45.26701982 89.57973605 45.37433797 97.03610163 45.49204159 104.49243259 C45.53031721 107.02884128 45.56517254 109.56530399 45.59653378 112.10180759 C45.64221441 115.74840694 45.70020508 119.39463485 45.76059628 123.04101658 C45.77214748 124.17452045 45.78369869 125.30802433 45.79559994 126.47587681 C45.81546963 127.53659901 45.83533932 128.59732121 45.85581112 129.6901865 C45.86913479 130.62062275 45.88245846 131.551059 45.89618587 132.50969028 C46.20499264 135.40771912 46.84944431 137.52902685 48.17465878 140.12304783 C52.70926749 143.14612031 57.14910897 142.46343226 62.48715878 142.43554783 C63.5713409 142.43063328 64.65552303 142.42571873 65.77255917 142.42065525 C77.94767958 142.24336091 90.48583592 141.17701375 99.87778378 132.56054783 C103.81529019 128.26508629 106.52953557 123.2845493 109.17465878 118.12304783 C111.81465878 118.12304783 114.45465878 118.12304783 117.17465878 118.12304783 C118.61063183 122.92877098 117.7161162 126.94603115 116.79965878 131.74804783 C115.70054479 137.82232491 114.80670695 143.78394627 114.48325253 149.95898533 C114.14113374 152.35814744 113.29537897 153.99208919 112.17465878 156.12304783 C97.47583386 156.14638739 82.77701139 156.16403222 68.07817173 156.17486 C61.25355695 156.1800207 54.42895367 156.18705912 47.60434628 156.19848728 C41.02322445 156.20950248 34.44211147 156.2153256 27.86098003 156.21792507 C25.34507083 156.21977853 22.82916231 156.22339764 20.31325817 156.22877789 C16.80040964 156.23599405 13.28761113 156.23703852 9.77475643 156.23657322 C8.72531353 156.2401685 7.67587063 156.24376377 6.59462643 156.24746799 C5.64107769 156.24609333 4.68752895 156.24471867 3.7050848 156.24330235 C2.45789889 156.24468503 2.45789889 156.24468503 1.18551731 156.24609566 C-0.82534122 156.12304783 -0.82534122 156.12304783 -2.82534122 155.12304783 C-2.92299747 148.97070408 -2.92299747 148.97070408 -2.82534122 147.12304783 C-0.95494077 145.25264738 2.30768318 145.75932068 4.85044003 145.59961033 C7.72058509 145.01111 9.02356522 144.10685934 11.17465878 142.12304783 C13.66708052 135.11259309 13.46783574 127.18489466 13.44931698 119.82763767 C13.45442791 118.75784168 13.45953884 117.68804569 13.46480465 116.58583164 C13.47859085 113.08515772 13.47775279 109.58468299 13.47544003 106.08398533 C13.47933173 103.63261944 13.48366737 101.18125423 13.48842525 98.72988987 C13.49586292 93.607665 13.49561308 88.48550911 13.4903326 83.3632822 C13.48452781 76.81211366 13.50150556 70.2612269 13.52467728 63.71010494 C13.53943082 58.65366063 13.54028432 53.59728405 13.53716755 48.54082203 C13.5376795 46.12559162 13.54289338 43.7103573 13.55297947 41.2951479 C13.56536379 37.91646966 13.55854079 34.53833889 13.54697323 31.15966892 C13.55461697 30.17137592 13.5622607 29.18308292 13.57013607 28.16484165 C13.52543877 22.23575892 13.08531353 16.41908273 10.17465878 11.12304783 C6.87606488 9.05453035 6.87606488 9.05453035 3.17465878 8.12304783 C0.29965878 7.24804783 0.29965878 7.24804783 -1.82534122 6.12304783 C-2.70034122 3.56054783 -2.70034122 3.56054783 -2.82534122 1.12304783 C-1.82534122 0.12304783 -1.82534122 0.12304783 0 0 Z " fill="#F4F4F4" transform="translate(716.8253412246704,608.8769521713257)"/>
<path d="M0 0 C20.79 0 41.58 0 63 0 C63.495 2.97 63.495 2.97 64 6 C62.09332232 7.90667768 58.8107733 7.84171814 56.2265625 8.3046875 C53.64651953 9.11038513 52.6605409 9.88799669 51 12 C52.04327084 20.20197483 55.39629886 27.87074142 58.3125 35.5625 C58.86750012 37.03966724 59.42192326 38.51705136 59.97583008 39.99462891 C61.2375807 43.35747341 62.50303029 46.71889982 63.77050781 50.07958984 C66.10495932 56.27317072 68.42577686 62.47183264 70.74568367 68.67087364 C74.71594699 79.27941376 78.68889475 89.8869488 82.66796875 100.4921875 C83.07578583 101.58034256 83.48360291 102.66849762 83.90377808 103.78962708 C84.28253082 104.79861557 84.66128357 105.80760406 85.05151367 106.84716797 C85.38092453 107.72533173 85.71033539 108.60349548 86.04972839 109.50827026 C87.00639268 112.01676239 87.99599894 114.51011923 89 117 C103.62604178 77.03985555 103.62604178 77.03985555 117.62145996 36.85705566 C118.11961145 35.38148464 118.62126283 33.90709007 119.12658691 32.43395996 C119.81180598 30.43089608 120.48261987 28.42364536 121.1484375 26.4140625 C121.51114746 25.3307666 121.87385742 24.2474707 122.24755859 23.13134766 C123.08793279 19.63406037 123.21118724 16.58473314 123 13 C121.01398864 9.95830153 118.13616749 9.06427087 114.8125 7.8125 C113.91144531 7.46832031 113.01039063 7.12414062 112.08203125 6.76953125 C111.05142578 6.38861328 111.05142578 6.38861328 110 6 C110 4.02 110 2.04 110 0 C116.6752034 -0.02526945 123.35039457 -0.04283268 130.02563477 -0.05493164 C132.29842591 -0.05997325 134.5712138 -0.06680637 136.84399414 -0.07543945 C140.10303551 -0.08751261 143.36203417 -0.09322987 146.62109375 -0.09765625 C147.64400009 -0.10281754 148.66690643 -0.10797882 149.72080994 -0.11329651 C150.66170975 -0.11337204 151.60260956 -0.11344757 152.57202148 -0.11352539 C153.40475082 -0.115746 154.23748016 -0.11796661 155.09544373 -0.12025452 C157 0 157 0 158 1 C158.1875 3.4375 158.1875 3.4375 158 6 C155.38548972 8.61451028 152.93543503 8.84956443 149.38671875 9.6328125 C142.87084616 13.36530907 140.1345601 22.7675644 137.375 29.375 C136.68555298 31.01480835 136.68555298 31.01480835 135.98217773 32.68774414 C130.21314223 46.62042202 124.96289571 60.75706438 119.63574219 74.86279297 C113.9851025 89.81868435 108.2628604 104.74463446 102.44039917 119.634552 C101.57153123 121.85755011 100.70441149 124.08123239 99.83914185 126.30563354 C98.62942617 129.41402858 97.41333283 132.51985123 96.1953125 135.625 C95.66829491 136.98281334 95.66829491 136.98281334 95.13063049 138.36805725 C88.94498643 154.05501357 88.94498643 154.05501357 86 157 C83.81707226 157.23481693 81.62796826 157.41363323 79.4375 157.5625 C78.23996094 157.64628906 77.04242187 157.73007812 75.80859375 157.81640625 C74.88175781 157.87699219 73.95492187 157.93757812 73 158 C68.87506405 150.37796005 65.78048516 142.46058482 62.78421021 134.35134888 C61.27453949 130.27036805 59.74298707 126.19762252 58.2109375 122.125 C57.88011673 121.24526016 57.54929596 120.36552032 57.20845032 119.4591217 C50.88055773 102.68279403 44.24962411 86.02146244 37.67373657 69.34124756 C35.31015226 63.34226447 32.96061563 57.33812566 30.62892151 51.32667542 C29.26253851 47.80501673 27.89029926 44.28565599 26.51730347 40.76657104 C25.88990209 39.15400091 25.26524376 37.54036036 24.64358521 35.92556763 C21.65766804 28.17302557 18.66361841 20.93004979 14 14 C14 13.34 14 12.68 14 12 C10.98029212 10.43370292 7.91349586 9.12374836 4.75 7.875 C3.85796875 7.52179687 2.9659375 7.16859375 2.046875 6.8046875 C1.03367187 6.40636719 1.03367187 6.40636719 0 6 C0 4.02 0 2.04 0 0 Z " fill="#F3F3F4" transform="translate(544,609)"/>
<path d="M0 0 C4.3924631 -0.07482575 8.78457672 -0.12891683 13.17749023 -0.16479492 C14.66811598 -0.17977042 16.15869851 -0.20015819 17.64916992 -0.22631836 C27.22301 -0.39000118 35.49442162 -0.397059 43.9375 4.8125 C47.7704971 8.87779995 48.47474336 13.46643106 48.31640625 18.9765625 C47.57973461 23.68762312 45.24203957 27.06089691 41.4375 29.9375 C39 31 39 31 36 31 C43.72909896 46.63937926 43.72909896 46.63937926 56.4375 57.5 C57.283125 57.665 58.12875 57.83 59 58 C58.67 59.32 58.34 60.64 58 62 C50.76432657 62.47883133 44.95793946 62.46211636 39 58 C32.8318196 52.54050416 29.15972058 45.52314424 26 38 C26 37.34 26 36.68 26 36 C22.535 35.505 22.535 35.505 19 35 C18.99372565 38.08518625 19.05337657 41.16571619 19.125 44.25 C19.12242187 45.12269531 19.11984375 45.99539063 19.1171875 46.89453125 C19.1937168 49.40086597 19.32227878 51.58358107 20 54 C22.91839435 56.46101411 22.91839435 56.46101411 26 58 C26 58.99 26 59.98 26 61 C17.42 61 8.84 61 0 61 C0 59.68 0 58.36 0 57 C3.465 56.505 3.465 56.505 7 56 C6.67 39.5 6.34 23 6 6 C4.02 5.34 2.04 4.68 0 4 C0 2.68 0 1.36 0 0 Z " fill="#EEEEEF" transform="translate(203,807)"/>
<path d="M0 0 C2.31 0 4.62 0 7 0 C10.95047572 9.60765242 14.75317519 19.25892689 18.3203125 29.015625 C18.60761734 29.79930954 18.89492218 30.58299408 19.19093323 31.39042664 C20.64418475 35.35715154 22.08776386 39.32703321 23.51831055 43.30200195 C24.06005448 44.78609042 24.60211435 46.27006361 25.14453125 47.75390625 C25.38805328 48.44063416 25.63157532 49.12736206 25.88247681 49.8348999 C27.54901396 54.35930884 28.95789208 56.89142713 33.1875 59.1875 C33.785625 59.455625 34.38375 59.72375 35 60 C35 60.99 35 61.98 35 63 C26.42 63 17.84 63 9 63 C9 61.68 9 60.36 9 59 C11.475 58.505 11.475 58.505 14 58 C12.68 53.71 11.36 49.42 10 45 C3.73 44.67 -2.54 44.34 -9 44 C-9.99 48.29 -10.98 52.58 -12 57 C-10.35 57.66 -8.7 58.32 -7 59 C-7 60.32 -7 61.64 -7 63 C-13.6 63 -20.2 63 -27 63 C-26.67 61.68 -26.34 60.36 -26 59 C-25.227771 58.77014404 -24.45554199 58.54028809 -23.65991211 58.3034668 C-20.00183266 56.51085678 -19.62091811 54.48356856 -18.3004303 50.7545929 C-18.01695236 49.89327255 -17.73347443 49.03195221 -17.44140625 48.14453125 C-17.12977036 47.25070236 -16.81813446 46.35687347 -16.49705505 45.43595886 C-15.50078155 42.56734253 -14.53087548 39.69064011 -13.5625 36.8125 C-12.27839454 33.06684438 -10.98447374 29.32460056 -9.69140625 25.58203125 C-9.38063141 24.67583038 -9.06985657 23.76962952 -8.74966431 22.83596802 C-6.08641053 15.11483332 -3.138592 7.5400884 0 0 Z " fill="#F3F3F3" transform="translate(358,805)"/>
<path d="M0 0 C2.64 0 5.28 0 8 0 C8.43828125 1.22847656 8.8765625 2.45695313 9.328125 3.72265625 C14.02918501 16.8107916 18.9740633 29.79212569 24.04980469 42.73852539 C24.30409744 43.38965805 24.5583902 44.04079071 24.82038879 44.71165466 C25.51564903 46.491618 26.21366671 48.27050357 26.91186523 50.04931641 C28 53 28 53 28.46118164 55.32177734 C28.6389917 55.87559082 28.81680176 56.4294043 29 57 C31.99615946 58.3045656 31.99615946 58.3045656 35 59 C35 59.99 35 60.98 35 62 C26.42 62 17.84 62 9 62 C9 60.68 9 59.36 9 58 C10.65 57.34 12.3 56.68 14 56 C13.01 51.71 12.02 47.42 11 43 C4.4 43 -2.2 43 -9 43 C-10.77667807 50.16045867 -10.77667807 50.16045867 -11 57 C-9.35 57.33 -7.7 57.66 -6 58 C-6 59.32 -6 60.64 -6 62 C-12.6 62 -19.2 62 -26 62 C-26 60.68 -26 59.36 -26 58 C-25.08613525 57.69634521 -24.17227051 57.39269043 -23.23071289 57.07983398 C-18.63520341 54.12138576 -17.91513472 50.78819676 -16.30859375 45.72265625 C-15.99600113 44.80093124 -15.68340851 43.87920624 -15.36134338 42.92955017 C-14.36563389 39.98044476 -13.40067006 37.02237435 -12.4375 34.0625 C-11.15189914 30.19674076 -9.85490423 26.3348348 -8.55859375 22.47265625 C-8.25150482 21.54981842 -7.94441589 20.62698059 -7.62802124 19.67617798 C-5.38230481 12.97504126 -2.90221188 6.44888677 0 0 Z " fill="#F1F2F2" transform="translate(678,806)"/>
<path d="M0 0 C14.85 0 29.7 0 45 0 C45 4.62 45 9.24 45 14 C43.68 14 42.36 14 41 14 C40.34 11.69 39.68 9.38 39 7 C34.900639 6.0672582 30.87956712 5.71174738 26.6875 5.4375 C24.480625 5.293125 22.27375 5.14875 20 5 C20 12.26 20 19.52 20 27 C21.753125 26.855625 23.50625 26.71125 25.3125 26.5625 C26.29863281 26.48128906 27.28476562 26.40007813 28.30078125 26.31640625 C31.09375599 26.08187441 31.09375599 26.08187441 34 25 C35.21869929 22.49552484 35.21869929 22.49552484 36 20 C37.32 20.33 38.64 20.66 40 21 C40 26.94 40 32.88 40 39 C38.02 39.495 38.02 39.495 36 40 C35.731875 39.030625 35.46375 38.06125 35.1875 37.0625 C34.795625 36.051875 34.40375 35.04125 34 34 C30.99221479 32.99740493 28.46179353 32.69685358 25.3125 32.4375 C23.559375 32.293125 21.80625 32.14875 20 32 C20.33 39.26 20.66 46.52 21 54 C25.6036076 56.3018038 31.54717417 55.39489754 36.3125 53.875 C40.41524323 52.17985459 41.94401546 49.85497101 44 46 C45.65 46.33 47.3 46.66 49 47 C48.69249629 49.14655501 48.3788634 51.29223285 48.0625 53.4375 C47.88847656 54.63246094 47.71445312 55.82742188 47.53515625 57.05859375 C47 60 47 60 46 61 C44.55710213 61.09295815 43.10970215 61.11746513 41.66381836 61.11352539 C40.28249977 61.11341209 40.28249977 61.11341209 38.87327576 61.11329651 C37.87224319 61.10813522 36.87121063 61.10297394 35.83984375 61.09765625 C34.82024063 61.0962413 33.80063751 61.09482635 32.75013733 61.09336853 C29.47922893 61.08775097 26.20838787 61.0751955 22.9375 61.0625 C20.72591244 61.05748726 18.51432382 61.05292396 16.30273438 61.04882812 C10.86846643 61.03777584 5.43423803 61.02102063 0 61 C0.1875 59.125 0.1875 59.125 1 57 C2.65 56.34 4.3 55.68 6 55 C6 38.83 6 22.66 6 6 C4.02 5.01 2.04 4.02 0 3 C0 2.01 0 1.02 0 0 Z " fill="#F3F3F3" transform="translate(481,807)"/>
<path d="M0 0 C14.85 0 29.7 0 45 0 C45 4.62 45 9.24 45 14 C43.68 14 42.36 14 41 14 C40.4121875 12.576875 40.4121875 12.576875 39.8125 11.125 C37.69297927 7.47065392 36.92980285 7.17894086 33 6 C30.73703593 5.71878758 28.46369338 5.51295111 26.1875 5.375 C24.145625 5.25125 22.10375 5.1275 20 5 C20 12.26 20 19.52 20 27 C24.62 26.67 29.24 26.34 34 26 C34.66 24.02 35.32 22.04 36 20 C36.99 20.33 37.98 20.66 39 21 C39 26.94 39 32.88 39 39 C37.02 39.495 37.02 39.495 35 40 C34.34 38.02 33.68 36.04 33 34 C29.04 33.67 25.08 33.34 21 33 C20.67 40.26 20.34 47.52 20 55 C30.05501691 55.74297674 30.05501691 55.74297674 39 52 C39.91984373 50.95821733 40.81527684 49.89446597 41.6875 48.8125 C42.450625 47.884375 43.21375 46.95625 44 46 C44.99 46 45.98 46 47 46 C46.85973717 48.31284456 46.71264442 50.62527591 46.5625 52.9375 C46.48128906 54.22527344 46.40007812 55.51304687 46.31640625 56.83984375 C46 60 46 60 45 61 C43.58774954 61.0928726 42.17091066 61.11746772 40.75561523 61.11352539 C39.85475693 61.11344986 38.95389862 61.11337433 38.02574158 61.11329651 C37.04658279 61.10813522 36.06742401 61.10297394 35.05859375 61.09765625 C34.06118668 61.0962413 33.0637796 61.09482635 32.03614807 61.09336853 C28.83656876 61.08775114 25.63705831 61.07519571 22.4375 61.0625 C20.27408955 61.05748724 18.11067801 61.05292395 15.94726562 61.04882812 C10.63148675 61.03777607 5.31574829 61.02102104 0 61 C0 59.68 0 58.36 0 57 C1.98 56.34 3.96 55.68 6 55 C6 38.83 6 22.66 6 6 C4.02 5.01 2.04 4.02 0 3 C0 2.01 0 1.02 0 0 Z " fill="#EDEDEE" transform="translate(272,807)"/>
<path d="M0 0 C14.85 0 29.7 0 45 0 C45 4.62 45 9.24 45 14 C43.68 14 42.36 14 41 14 C40.4121875 12.576875 40.4121875 12.576875 39.8125 11.125 C37.69297927 7.47065392 36.92980285 7.17894086 33 6 C30.73703593 5.71878758 28.46369338 5.51295111 26.1875 5.375 C24.145625 5.25125 22.10375 5.1275 20 5 C20 12.26 20 19.52 20 27 C21.918125 26.87625 23.83625 26.7525 25.8125 26.625 C27.43091797 26.52058594 27.43091797 26.52058594 29.08203125 26.4140625 C32.18626186 26.18804267 32.18626186 26.18804267 35 24 C35.72382467 21.94074861 35.72382467 21.94074861 36 20 C37.32 20.33 38.64 20.66 40 21 C40 26.94 40 32.88 40 39 C38.68 39 37.36 39 36 39 C35.731875 38.195625 35.46375 37.39125 35.1875 36.5625 C34.5996875 35.2940625 34.5996875 35.2940625 34 34 C30.99221479 32.99740493 28.46179353 32.69685358 25.3125 32.4375 C24.31863281 32.35371094 23.32476563 32.26992188 22.30078125 32.18359375 C21.16189453 32.09271484 21.16189453 32.09271484 20 32 C20.13850705 35.45866792 20.28704727 38.91683275 20.4375 42.375 C20.47681641 43.35984375 20.51613281 44.3446875 20.55664062 45.359375 C20.59853516 46.30039062 20.64042969 47.24140625 20.68359375 48.2109375 C20.72025146 49.08024902 20.75690918 49.94956055 20.79467773 50.84521484 C20.87401544 53.0483262 20.87401544 53.0483262 22 55 C28.71107198 55.32766536 34.16249342 55.57398362 40 52 C41.36011609 50.01811655 42.69791204 48.02048131 44 46 C45.32 46 46.64 46 48 46 C47.85973717 48.31284456 47.71264442 50.62527591 47.5625 52.9375 C47.48128906 54.22527344 47.40007813 55.51304687 47.31640625 56.83984375 C47 60 47 60 46 61 C44.58774954 61.0928726 43.17091066 61.11746772 41.75561523 61.11352539 C40.85475693 61.11344986 39.95389862 61.11337433 39.02574158 61.11329651 C38.04658279 61.10813522 37.06742401 61.10297394 36.05859375 61.09765625 C35.06118668 61.0962413 34.0637796 61.09482635 33.03614807 61.09336853 C29.83656876 61.08775114 26.63705831 61.07519571 23.4375 61.0625 C21.27408955 61.05748724 19.11067801 61.05292395 16.94726562 61.04882812 C11.63148675 61.03777607 6.31574829 61.02102104 1 61 C1 59.68 1 58.36 1 57 C2.98 56.34 4.96 55.68 7 55 C7 39.16 7 23.32 7 7 C3.535 5.02 3.535 5.02 0 3 C0 2.01 0 1.02 0 0 Z " fill="#F4F4F4" transform="translate(778,807)"/>
<path d="M0 0 C1.03590199 5.05002222 1.10251672 9.87416389 1 15 C-1.25 15 -1.25 15 -4 14 C-5.23619503 12.03332609 -6.12683295 10.05803117 -7.0078125 7.91015625 C-7.97850403 5.66572017 -7.97850403 5.66572017 -11 4 C-15.28706286 3.32101767 -18.86167128 3.32242338 -22.625 5.5625 C-24.28660403 8.04164133 -24.28660403 8.04164133 -24 11.5 C-22.76956783 15.8065126 -21.11444409 17.71951367 -17.27050781 20.04736328 C-15.23421962 21.16033702 -13.18217664 22.2386693 -11.125 23.3125 C-4.55314117 26.8610533 0.53731012 30.07462024 4 37 C4.4822327 42.7235488 4.74264719 48.10962534 2.625 53.5 C-4.46668937 60.25398988 -11.36659242 61.60932768 -20.86181641 61.46630859 C-26.16269471 61.24360263 -30.29678893 60.40163969 -35 58 C-35.33 52.72 -35.66 47.44 -36 42 C-31 43 -31 43 -29.8125 44.70703125 C-29.544375 45.40183594 -29.27625 46.09664062 -29 46.8125 C-27.24795649 50.66976574 -25.86318829 52.93963291 -22 55 C-17.21346909 55.66908497 -13.18770723 55.58409943 -9 53 C-7.42101947 49.84203893 -7.18071829 46.39329364 -8 43 C-12.14240947 37.91395285 -17.39551536 35.4013192 -23.1171875 32.48242188 C-28.45937597 29.63493463 -32.22629723 26.54740553 -35 21 C-35.5072965 15.44468752 -35.76260422 10.58169764 -33.3125 5.5 C-23.89288658 -4.68336586 -12.40075543 -5.14401707 0 0 Z " fill="#F3F3F4" transform="translate(579,808)"/>
<path d="M0 0 C17.82 0 35.64 0 54 0 C54 4.95 54 9.9 54 15 C52.68 15 51.36 15 50 15 C49.566875 14.05125 49.13375 13.1025 48.6875 12.125 C47.20697799 8.79958063 47.20697799 8.79958063 44 7 C41.26127045 6.54227937 41.26127045 6.54227937 38.3125 6.375 C36.82169922 6.26285156 36.82169922 6.26285156 35.30078125 6.1484375 C34.54152344 6.09945312 33.78226563 6.05046875 33 6 C33.09222138 12.63884829 33.19952063 19.2773292 33.31738281 25.91577148 C33.35570221 28.17482959 33.39054981 30.43394932 33.421875 32.69311523 C33.46746107 35.93756157 33.52546638 39.18158248 33.5859375 42.42578125 C33.59748871 43.43836502 33.60903992 44.45094879 33.62094116 45.49421692 C33.64081085 46.43496567 33.66068054 47.37571442 33.68115234 48.3449707 C33.69447601 49.17325882 33.70779968 50.00154694 33.7215271 50.85493469 C33.87738759 53.29596133 33.87738759 53.29596133 36 56 C38.56282742 56.72965366 38.56282742 56.72965366 41 57 C41 58.32 41 59.64 41 61 C31.76 61 22.52 61 13 61 C13 59.68 13 58.36 13 57 C13.969375 56.71125 14.93875 56.4225 15.9375 56.125 C19.10664203 55.35785318 19.10664203 55.35785318 20 53 C20.11805177 51.4892243 20.17696449 49.97361169 20.20532227 48.45849609 C20.22526749 47.51767181 20.24521271 46.57684753 20.26576233 45.60751343 C20.28247482 44.58976837 20.29918732 43.57202332 20.31640625 42.5234375 C20.33718735 41.48305328 20.35796844 40.44266907 20.37937927 39.37075806 C20.44489872 36.03890751 20.50377092 32.7069765 20.5625 29.375 C20.60568294 27.11978326 20.64929715 24.86457473 20.69335938 22.609375 C20.80058252 17.07300236 20.90234446 11.53654922 21 6 C19.24929483 6.11470137 17.49942464 6.24219028 15.75 6.375 C14.77546875 6.44460938 13.8009375 6.51421875 12.796875 6.5859375 C10.0456035 6.99324864 8.30944093 7.47411939 6 9 C4.23272142 12.0334467 4.23272142 12.0334467 3 15 C1.68 15 0.36 15 -1 15 C-0.67 10.05 -0.34 5.1 0 0 Z " fill="#F5F5F5" transform="translate(595,807)"/>
<path d="M0 0 C17.82 0 35.64 0 54 0 C54 4.95 54 9.9 54 15 C52.68 15 51.36 15 50 15 C49.566875 13.865625 49.13375 12.73125 48.6875 11.5625 C48.130625 10.386875 47.57375 9.21125 47 8 C42.77845689 6.46557489 42.77845689 6.46557489 33 6 C33.33 22.17 33.66 38.34 34 55 C36.31 55.99 38.62 56.98 41 58 C41 58.99 41 59.98 41 61 C31.76 61 22.52 61 13 61 C13 59.68 13 58.36 13 57 C16.465 56.505 16.465 56.505 20 56 C20.33 39.5 20.66 23 21 6 C11.23236149 6.12263962 11.23236149 6.12263962 5 11 C3.68834743 13.11660427 3.68834743 13.11660427 3 15 C1.68 15 0.36 15 -1 15 C-0.67 10.05 -0.34 5.1 0 0 Z " fill="#F5F5F5" transform="translate(715,807)"/>
<path d="M0 0 C8.58 0 17.16 0 26 0 C26.33 1.32 26.66 2.64 27 4 C24.69 4.66 22.38 5.32 20 6 C19.97473162 12.96003447 19.95716778 19.9200572 19.94506836 26.88012695 C19.94002659 29.24992312 19.93319335 31.61971615 19.92456055 33.98950195 C19.9124881 37.38754039 19.90677029 40.78553785 19.90234375 44.18359375 C19.89718246 45.25024765 19.89202118 46.31690155 19.88670349 47.4158783 C19.88662796 48.39681961 19.88655243 49.37776093 19.88647461 50.38842773 C19.88314369 51.69081642 19.88314369 51.69081642 19.87974548 53.01951599 C19.78045333 55.00143681 19.78045333 55.00143681 21 56 C27.3929283 56.51700198 33.66683416 56.99987438 39 53 C39.70125 51.948125 40.4025 50.89625 41.125 49.8125 C41.74375 48.884375 42.3625 47.95625 43 47 C44.32 47 45.64 47 47 47 C46.85636473 48.37523135 46.70996483 49.75017402 46.5625 51.125 C46.48128906 51.89070312 46.40007812 52.65640625 46.31640625 53.4453125 C45.96178358 56.30856218 45.4743119 59.15412857 45 62 C29.49 62 13.98 62 -2 62 C-1.67 60.68 -1.34 59.36 -1 58 C0.98 57.34 2.96 56.68 5 56 C5 39.17 5 22.34 5 5 C2.03 4.505 2.03 4.505 -1 4 C-0.67 2.68 -0.34 1.36 0 0 Z " fill="#F1F2F2" transform="translate(404,806)"/>
<path d="M0 0 C9.9 0 19.8 0 30 0 C30 10.56 30 21.12 30 32 C20.1 32 10.2 32 0 32 C0 21.44 0 10.88 0 0 Z " fill="#151F2D" transform="translate(516,443)"/>
<path d="M0 0 C4.3924631 -0.07482575 8.78457672 -0.12891683 13.17749023 -0.16479492 C14.66811598 -0.17977042 16.15869851 -0.20015819 17.64916992 -0.22631836 C27.22301 -0.39000118 35.49442162 -0.397059 43.9375 4.8125 C47.7704971 8.87779995 48.47474336 13.46643106 48.31640625 18.9765625 C47.57973461 23.68762312 45.24203957 27.06089691 41.4375 29.9375 C39 31 39 31 36 31 C43.72909896 46.63937926 43.72909896 46.63937926 56.4375 57.5 C57.283125 57.665 58.12875 57.83 59 58 C58.67 59.32 58.34 60.64 58 62 C50.76432657 62.47883133 44.95793946 62.46211636 39 58 C32.8318196 52.54050416 29.15972058 45.52314424 26 38 C26 37.34 26 36.68 26 36 C24.68 35.34 23.36 34.68 22 34 C22 33.34 22 32.68 22 32 C22.70125 31.979375 23.4025 31.95875 24.125 31.9375 C28.36757751 30.55405081 30.42179573 27.53279256 33 24 C34.59742569 20.80514863 34.3754499 17.47614823 34 14 C32.61802549 10.67069777 30.99743332 7.99614997 29 5 C29 4.01 29 3.02 29 2 C24.52084672 1.97113662 20.04171709 1.95324813 15.5625 1.9375 C14.28310547 1.92912109 13.00371094 1.92074219 11.68554688 1.91210938 C10.47060547 1.90888672 9.25566406 1.90566406 8.00390625 1.90234375 C6.87799072 1.89710693 5.7520752 1.89187012 4.59204102 1.88647461 C2.07029129 1.70454552 2.07029129 1.70454552 1 3 C1.99 3.33 2.98 3.66 4 4 C2.68 4 1.36 4 0 4 C0 2.68 0 1.36 0 0 Z " fill="#F2F2F3" transform="translate(203,807)"/>
<path d="M0 0 C9.24 0 18.48 0 28 0 C28 10.23 28 20.46 28 31 C18.76 31 9.52 31 0 31 C0 20.77 0 10.54 0 0 Z " fill="#121B27" transform="translate(517,485)"/>
<path d="M0 0 C9.24 0 18.48 0 28 0 C28 10.23 28 20.46 28 31 C18.76 31 9.52 31 0 31 C0 20.77 0 10.54 0 0 Z " fill="#121C28" transform="translate(479,485)"/>
<path d="M0 0 C9.24 0 18.48 0 28 0 C28 10.23 28 20.46 28 31 C18.76 31 9.52 31 0 31 C0 20.77 0 10.54 0 0 Z " fill="#131C28" transform="translate(479,444)"/>
<path d="M0 0 C2.71785518 -0.00022501 5.43570958 -0.00164945 8.15356445 -0.00289917 C13.80062359 -0.00469643 19.44766946 -0.00238002 25.09472656 0.00244141 C31.53630671 0.00787921 37.97785516 0.00611479 44.41943455 0.000615 C50.0441721 -0.00398711 55.66890035 -0.0045327 61.29363918 -0.00194633 C64.61183438 -0.00042182 67.93000349 -0.00049906 71.24819946 -0.00348282 C89.08448989 -0.01601104 106.86767932 0.37360403 124.6875 1.1328125 C124.6875 1.4628125 124.6875 1.7928125 124.6875 2.1328125 C114.83141172 2.97143548 105.0746209 3.27754923 95.18359375 3.26220703 C93.68702146 3.26356624 92.19044951 3.26534906 90.69387817 3.26751709 C86.67322576 3.27202969 82.65259936 3.27032757 78.63194656 3.267138 C74.39712715 3.26458219 70.16230975 3.26696083 65.92749023 3.26852417 C58.81982021 3.27033654 51.71216062 3.26796413 44.60449219 3.26318359 C36.42132576 3.25774278 28.23818425 3.2595061 20.05501842 3.26501 C12.99215324 3.2695678 5.92929551 3.27017868 -1.13357067 3.26757133 C-5.33572485 3.26602317 -9.53786736 3.26577426 -13.74002075 3.26910782 C-17.69311803 3.27202552 -21.64618359 3.26994026 -25.5992775 3.26421356 C-27.03825961 3.26290666 -28.47724446 3.26324419 -29.91622543 3.26547623 C-39.10388109 3.27839858 -48.1592937 2.91162951 -57.3125 2.1328125 C-57.3125 1.8028125 -57.3125 1.4728125 -57.3125 1.1328125 C-38.19963295 0.31851415 -19.12983247 -0.01720173 0 0 Z " fill="#242932" transform="translate(481.3125,565.8671875)"/>
<path d="M0 0 C7.24390983 0.4878768 7.24390983 0.4878768 10.41796875 3.4296875 C12.85870353 7.88668145 13.55826736 12.03062719 12.85546875 17.0546875 C10.84043986 20.80681026 9.40080733 22.69112845 5.85546875 25.0546875 C3.59375 25.25 3.59375 25.25 1.16796875 25.1796875 C-0.04439453 25.15261719 -0.04439453 25.15261719 -1.28125 25.125 C-1.89613281 25.10179687 -2.51101562 25.07859375 -3.14453125 25.0546875 C-3.17340109 21.07553591 -3.19128531 17.09641097 -3.20703125 13.1171875 C-3.21541016 11.98087891 -3.22378906 10.84457031 -3.23242188 9.67382812 C-3.23564453 8.59423828 -3.23886719 7.51464844 -3.2421875 6.40234375 C-3.24742432 5.40211182 -3.25266113 4.40187988 -3.25805664 3.37133789 C-3.11033326 0.35682786 -3.01902321 0.07698784 0 0 Z " fill="#17202B" transform="translate(225.14453125,811.9453125)"/>
<path d="M0 0 C2 3.75 2 3.75 2 6 C2.66 6 3.32 6 4 6 C4.33 4.68 4.66 3.36 5 2 C6.478746 6.436238 4.74833678 8.73405826 3 13 C7.95 13 12.9 13 18 13 C17.67 13.99 17.34 14.98 17 16 C12.05 16 7.1 16 2 16 C1.525625 17.546875 1.05125 19.09375 0.5625 20.6875 C0.29566406 21.55761719 0.02882813 22.42773438 -0.24609375 23.32421875 C-0.96344529 25.87025921 -1.517541 28.4003423 -2 31 C-0.35 31.66 1.3 32.32 3 33 C3 34.32 3 35.64 3 37 C-3.6 37 -10.2 37 -17 37 C-16.67 35.68 -16.34 34.36 -16 33 C-15.21407471 32.7313916 -14.42814941 32.4627832 -13.6184082 32.18603516 C-10.69441422 31.18868294 -10.69441422 31.18868294 -9.42260742 27.92724609 C-8.96394935 26.63275903 -8.52601903 25.33080181 -8.10546875 24.0234375 C-7.86838699 23.33819 -7.63130524 22.6529425 -7.38703918 21.94692993 C-6.63570883 19.76199149 -5.91143464 17.56914907 -5.1875 15.375 C-4.68209721 13.89002529 -4.17495531 12.40564125 -3.66601562 10.921875 C-2.42374419 7.28778993 -1.20565553 3.64638824 0 0 Z M-1 7 C-0.34 8.32 0.32 9.64 1 11 C0.67 9.68 0.34 8.36 0 7 C-0.33 7 -0.66 7 -1 7 Z " fill="#F3F3F3" transform="translate(348,831)"/>
<path d="M0 0 C4.48989599 0.00572691 8.97973255 0.0023853 13.46962643 -0.00357246 C16.97956274 -0.007213 20.48948531 -0.00602409 23.99942207 -0.00344467 C25.65412974 -0.00278663 27.30883873 -0.00356361 28.96354485 -0.00592422 C38.83943524 -0.0169416 48.58716378 0.2640317 58.43237305 1.13037109 C55.51649966 2.79125404 53.4349779 3.38005071 50.08818054 3.37760925 C49.22614014 3.38180374 48.36409973 3.38599823 47.47593689 3.39031982 C46.53818924 3.38470032 45.60044159 3.37908081 44.63427734 3.37329102 C43.64031952 3.37518936 42.64636169 3.37708771 41.62228394 3.37904358 C38.33363985 3.38275066 35.04521629 3.37204546 31.7565918 3.36083984 C29.46979295 3.35964757 27.1829936 3.35919498 24.89619446 3.35945129 C20.10036152 3.35788638 15.30460322 3.34959788 10.50878906 3.33618164 C4.36871924 3.31922068 -1.77126833 3.31536654 -7.91135883 3.31612682 C-12.63574505 3.31585448 -17.36011338 3.31036248 -22.08449364 3.30312538 C-24.34786023 3.299948 -26.61122885 3.29797348 -28.87459755 3.29723167 C-32.04354912 3.29505662 -35.21241466 3.28628635 -38.38134766 3.27563477 C-39.31302261 3.27608795 -40.24469757 3.27654114 -41.2046051 3.27700806 C-46.09822275 3.25303195 -50.74246538 2.9576423 -55.56762695 2.13037109 C-55.56762695 1.80037109 -55.56762695 1.47037109 -55.56762695 1.13037109 C-37.05777011 -0.11353662 -18.5413547 -0.02398083 0 0 Z " fill="#232830" transform="translate(770.567626953125,763.86962890625)"/>
<path d="M0 0 C14.85 0 29.7 0 45 0 C45 4.62 45 9.24 45 14 C43.68 14 42.36 14 41 14 C40.4121875 12.576875 40.4121875 12.576875 39.8125 11.125 C37.80206144 7.65872662 36.77300358 7.0197307 33 6 C33 5.67 33 5.34 33 5 C31.17275391 4.80083984 31.17275391 4.80083984 29.30859375 4.59765625 C27.6848893 4.41933033 26.06119175 4.24094157 24.4375 4.0625 C23.23770508 3.93198242 23.23770508 3.93198242 22.01367188 3.79882812 C17.32743303 3.28238548 12.66319454 2.69478469 8 2 C8.16265854 2.72620041 8.32531708 3.45240082 8.49290466 4.2006073 C8.96588005 6.81164264 9.12081728 9.14332843 9.11352539 11.7902832 C9.11344986 12.71086014 9.11337433 13.63143707 9.11329651 14.57991028 C9.10813522 15.5602977 9.10297394 16.54068512 9.09765625 17.55078125 C9.0962413 18.56472458 9.09482635 19.57866791 9.09336853 20.62333679 C9.08778328 23.85308821 9.07523345 27.08276962 9.0625 30.3125 C9.0574831 32.50585837 9.05292052 34.69921783 9.04882812 36.89257812 C9.03781868 42.26174253 9.0210952 47.63086626 9 53 C8.67 53 8.34 53 8 53 C7.98786972 52.16434761 7.98786972 52.16434761 7.97549438 51.31181335 C7.88952732 45.52054773 7.79002739 39.7296275 7.68261719 33.9387207 C7.64430196 31.77667027 7.6094536 29.61455553 7.578125 27.45239258 C7.53252983 24.34693396 7.47452616 21.24191901 7.4140625 18.13671875 C7.40251129 17.16788254 7.39096008 16.19904633 7.37905884 15.20085144 C7.3492543 13.84979057 7.3492543 13.84979057 7.31884766 12.47143555 C7.30552399 11.67867722 7.29220032 10.88591888 7.2784729 10.06913757 C7.11286418 7.69396892 7.11286418 7.69396892 5 5 C2.44816596 3.79549696 2.44816596 3.79549696 0 3 C0 2.01 0 1.02 0 0 Z " fill="#EEEEEF" transform="translate(272,807)"/>
<path d="M0 0 C1.32 0 2.64 0 4 0 C3.85636473 1.37523135 3.70996483 2.75017402 3.5625 4.125 C3.48128906 4.89070312 3.40007812 5.65640625 3.31640625 6.4453125 C2.96178358 9.30856218 2.4743119 12.15412857 2 15 C-13.51 15 -29.02 15 -45 15 C-44.67 13.68 -44.34 12.36 -44 11 C-36.25 10.875 -36.25 10.875 -34 12 C-31.2764805 11.91075148 -28.58986689 11.76646668 -25.875 11.5625 C-24.74384766 11.48418945 -24.74384766 11.48418945 -23.58984375 11.40429688 C-21.7262063 11.27454996 -19.86305004 11.13792512 -18 11 C-18 10.67 -18 10.34 -18 10 C-17.26394531 9.91363281 -16.52789062 9.82726562 -15.76953125 9.73828125 C-9.64047668 8.85576216 -5.91413809 8.17676328 -2 3 C-1.34 2.01 -0.68 1.02 0 0 Z " fill="#F1F1F2" transform="translate(447,853)"/>
<path d="M0 0 C17.82 0 35.64 0 54 0 C53.34 0.99 52.68 1.98 52 3 C48.960679 3.39226705 46.11236472 3.60640668 43.0625 3.6875 C42.20744873 3.72093506 41.35239746 3.75437012 40.47143555 3.78881836 C34.31587392 4.01300635 28.15910363 4.12456614 22 4 C21.67 4.66 21.34 5.32 21 6 C18.63671875 6.34375 18.63671875 6.34375 15.6875 6.5 C11.96862256 6.69860494 9.14611836 6.91193035 6 9 C4.23272142 12.0334467 4.23272142 12.0334467 3 15 C1.68 15 0.36 15 -1 15 C-0.67 10.05 -0.34 5.1 0 0 Z " fill="#E7E7E8" transform="translate(595,807)"/>
<path d="M0 0 C2.88381579 2.58803981 3.8491179 4.19529549 4.5625 8 C3.78056289 12.17033126 2.44652326 13.55871269 -1 16 C-4.89784294 16.8876276 -8.01402996 16.59158203 -11.5 14.5 C-13.60565979 10.99056702 -13.83665744 7.99462913 -13 4 C-9.08918103 -1.08406466 -6.14710256 -1.48378338 0 0 Z " fill="#131C27" transform="translate(661,169)"/>
<path d="M0 0 C1.00968043 -0.00128164 1.00968043 -0.00128164 2.03975844 -0.00258917 C4.29376502 -0.00423542 6.54769707 0.0012634 8.80169678 0.00672913 C10.41802977 0.00701121 12.03436289 0.00685285 13.6506958 0.00628662 C18.03875995 0.00599947 22.42679682 0.011883 26.81485462 0.01886058 C31.4006162 0.02510772 35.98637838 0.025699 40.57214355 0.02688599 C49.25601156 0.02999528 57.939867 0.03820327 66.62372947 0.04823548 C76.50996857 0.05940907 86.39620826 0.06491021 96.28245211 0.06993091 C116.61927766 0.0803862 136.9560919 0.09797789 157.29290771 0.12025452 C157.29290771 0.45025452 157.29290771 0.78025452 157.29290771 1.12025452 C112.74290771 1.45025452 68.19290771 1.78025452 22.29290771 2.12025452 C22.29290771 2.45025452 22.29290771 2.78025452 22.29290771 3.12025452 C11.07290771 3.12025452 -0.14709229 3.12025452 -11.70709229 3.12025452 C-10.70709229 1.12025452 -10.70709229 1.12025452 -9.06378555 0.50277042 C-6.01518554 0.00795083 -3.08986796 -0.00236228 0 0 Z " fill="#EAEAEB" transform="translate(429.70709228515625,563.8797454833984)"/>
<path d="M0 0 C0.99 0 1.98 0 3 0 C2.85973717 2.31284456 2.71264442 4.62527591 2.5625 6.9375 C2.48128906 8.22527344 2.40007812 9.51304687 2.31640625 10.83984375 C2 14 2 14 1 15 C-0.41225046 15.0928726 -1.82908934 15.11746772 -3.24438477 15.11352539 C-4.14524307 15.11344986 -5.04610138 15.11337433 -5.97425842 15.11329651 C-6.95341721 15.10813522 -7.93257599 15.10297394 -8.94140625 15.09765625 C-9.93881332 15.0962413 -10.9362204 15.09482635 -11.96385193 15.09336853 C-15.16343124 15.08775114 -18.36294169 15.07519571 -21.5625 15.0625 C-23.72591045 15.05748724 -25.88932199 15.05292395 -28.05273438 15.04882812 C-33.36851325 15.03777607 -38.68425171 15.02102104 -44 15 C-44 13.68 -44 12.36 -44 11 C-42.35 11 -40.7 11 -39 11 C-39 11.33 -39 11.66 -39 12 C-35.52085059 12.02887814 -32.04173169 12.04675687 -28.5625 12.0625 C-27.56927734 12.07087891 -26.57605469 12.07925781 -25.55273438 12.08789062 C-24.60849609 12.09111328 -23.66425781 12.09433594 -22.69140625 12.09765625 C-21.81685791 12.10289307 -20.94230957 12.10812988 -20.04125977 12.11352539 C-18.00559794 12.22784809 -18.00559794 12.22784809 -17 11 C-14.98688551 10.60430892 -12.96402792 10.25747809 -10.9375 9.9375 C-9.83277344 9.76089844 -8.72804688 9.58429687 -7.58984375 9.40234375 C-6.73519531 9.26957031 -5.88054687 9.13679687 -5 9 C-4.81050781 8.09507812 -4.81050781 8.09507812 -4.6171875 7.171875 C-3.74885631 4.11622852 -2.16241245 2.28961319 0 0 Z " fill="#EEEFEF" transform="translate(316,853)"/>
<path d="M0 0 C9.9 0 19.8 0 30 0 C30 10.56 30 21.12 30 32 C20.1 32 10.2 32 0 32 C0 21.44 0 10.88 0 0 Z M2 2 C2 11.57 2 21.14 2 31 C10.58 31 19.16 31 28 31 C28 21.43 28 11.86 28 2 C19.42 2 10.84 2 2 2 Z " fill="#34363C" transform="translate(516,443)"/>
<path d="M0 0 C0 0.99 0 1.98 0 3 C-0.33 3.33 -0.66 3.66 -1 4 C-1.12531154 6.9517038 -1.1861113 9.88113522 -1.20532227 12.83422852 C-1.21522186 13.76096375 -1.22512146 14.68769897 -1.23532104 15.64251709 C-1.26703701 18.72128704 -1.2917332 21.80007245 -1.31640625 24.87890625 C-1.33696707 27.00740471 -1.3579633 29.13589901 -1.37937927 31.26438904 C-1.43469004 36.87857704 -1.48405947 42.49280243 -1.53222656 48.10705566 C-1.58237601 53.8311701 -1.63809622 59.55522993 -1.69335938 65.27929688 C-1.80105102 76.51948466 -1.90247138 87.75971976 -2 99 C-2.66 98.67 -3.32 98.34 -4 98 C-4.09257354 85.66541495 -4.16370078 73.33091218 -4.20724869 60.99605083 C-4.22814677 55.2688084 -4.2565052 49.54180316 -4.30175781 43.81469727 C-4.34513595 38.29041517 -4.36912036 32.7663616 -4.37950897 27.24192238 C-4.38691477 25.13151258 -4.4013761 23.02111566 -4.42292023 20.91080284 C-4.4518472 17.96068408 -4.45596046 15.01151644 -4.45410156 12.0612793 C-4.46848267 11.18374496 -4.48286377 10.30621063 -4.49768066 9.40208435 C-4.45705348 3.46560441 -4.45705348 3.46560441 -1.97161865 0.93367004 C-0.99566742 0.47150337 -0.99566742 0.47150337 0 0 Z " fill="#FBFBFB" transform="translate(393,454)"/>
<path d="M0 0 C2 1 2 1 2.77783203 2.71826172 C3.01872559 3.44803223 3.25961914 4.17780273 3.5078125 4.9296875 C3.77207031 5.72503906 4.03632813 6.52039063 4.30859375 7.33984375 C4.57800781 8.17644531 4.84742188 9.01304687 5.125 9.875 C5.40214844 10.70386719 5.67929687 11.53273438 5.96484375 12.38671875 C8 18.5924415 8 18.5924415 8 22 C3.05 22 -1.9 22 -7 22 C-5.04910592 14.48905779 -2.76288395 7.25081726 0 0 Z " fill="#171F2B" transform="translate(358,822)"/>
<path d="M0 0 C16.17 0 32.34 0 49 0 C49 4.95 49 9.9 49 15 C47.68 15 46.36 15 45 15 C44.566875 13.88625 44.13375 12.7725 43.6875 11.625 C42.30088881 7.82487666 42.30088881 7.82487666 39 6 C38.505 5.505 38.505 5.505 38 5 C35.41977858 4.71778828 32.83969815 4.55179803 30.25 4.37890625 C29.5075 4.25386719 28.765 4.12882813 28 4 C27.67 3.34 27.34 2.68 27 2 C18.09 1.67 9.18 1.34 0 1 C0 0.67 0 0.34 0 0 Z " fill="#E6E7E8" transform="translate(720,807)"/>
<path d="M0 0 C0.66 0.33 1.32 0.66 2 1 C2.02526739 8.24486551 2.0428318 15.48971974 2.05493164 22.73461914 C2.05997356 25.20142033 2.06680691 27.66821852 2.07543945 30.13500977 C2.08751125 33.67204529 2.09322956 37.20904145 2.09765625 40.74609375 C2.10281754 41.85649521 2.10797882 42.96689667 2.11329651 44.11094666 C2.11337204 45.13192947 2.11344757 46.15291229 2.11352539 47.20483398 C2.115746 48.10862289 2.11796661 49.0124118 2.12025452 49.94358826 C2 52 2 52 1 53 C13.54 53 26.08 53 39 53 C39 53.99 39 54.98 39 56 C24.15 56 9.3 56 -6 56 C-6 54.68 -6 53.36 -6 52 C-4.02 51.34 -2.04 50.68 0 50 C0 33.5 0 17 0 0 Z " fill="#FCFCFC" transform="translate(785,812)"/>
<path d="M0 0 C0.66 0 1.32 0 2 0 C3.00577013 2.76886123 4.00480147 5.53984104 5 8.3125 C5.28617188 9.09818359 5.57234375 9.88386719 5.8671875 10.69335938 C6.13789062 11.45068359 6.40859375 12.20800781 6.6875 12.98828125 C7.06455078 14.03302612 7.06455078 14.03302612 7.44921875 15.09887695 C8 17 8 17 8 20 C3.38 20 -1.24 20 -6 20 C-5.18498496 15.10990978 -4.12996891 11.22504371 -2.4375 6.625 C-2.20353516 5.98433594 -1.96957031 5.34367188 -1.72851562 4.68359375 C-1.15700381 3.1206839 -0.57915771 1.56009273 0 0 Z " fill="#111821" transform="translate(678,823)"/>
<path d="M0 0 C2.64 0 5.28 0 8 0 C8.05064489 6.63855742 8.08571023 13.27706514 8.10986328 19.91577148 C8.11993058 22.17490501 8.13358538 24.43402547 8.15087891 26.69311523 C8.17509508 29.93736999 8.18647575 33.18145271 8.1953125 36.42578125 C8.20563507 37.43836502 8.21595764 38.45094879 8.22659302 39.49421692 C8.22674408 40.43496567 8.22689514 41.37571442 8.22705078 42.3449707 C8.231492 43.17325882 8.23593323 44.00154694 8.24050903 44.85493469 C8 47 8 47 6 50 C5.34 49.67 4.68 49.34 4 49 C4.33 48.34 4.66 47.68 5 47 C5.08949417 45.54962893 5.1175844 44.09521371 5.11352539 42.64208984 C5.11344986 41.74130707 5.11337433 40.84052429 5.11329651 39.91244507 C5.10813522 38.93844757 5.10297394 37.96445007 5.09765625 36.9609375 C5.09553383 35.46694931 5.09553383 35.46694931 5.09336853 33.94277954 C5.08775936 30.75348947 5.0752053 27.56426894 5.0625 24.375 C5.05748618 22.21614685 5.05292307 20.05729259 5.04882812 17.8984375 C5.03778695 12.5989345 5.02103988 7.29947222 5 2 C3.35 1.67 1.7 1.34 0 1 C0 0.67 0 0.34 0 0 Z " fill="#262B33" transform="translate(608,813)"/>
<path d="M0 0 C2.475 0.99 2.475 0.99 5 2 C5 3.65 5 5.3 5 7 C6.65 7.66 8.3 8.32 10 9 C10 10.32 10 11.64 10 13 C3.4 13 -3.2 13 -10 13 C-9.67 11.68 -9.34 10.36 -9 9 C-8.21625 8.71125 -7.4325 8.4225 -6.625 8.125 C-3.02798677 6.5834229 -2.49181492 4.50576505 -1 1 C-0.67 0.67 -0.34 0.34 0 0 Z " fill="#F4F4F5" transform="translate(341,855)"/>
<path d="M0 0 C1.86783046 5.48675196 2.2358396 10.22192976 2 16 C-0.25 16 -0.25 16 -3 15 C-4.23619503 13.03332609 -5.12683295 11.05803117 -6.0078125 8.91015625 C-6.97850403 6.66572017 -6.97850403 6.66572017 -10 5 C-11.9896995 4.60986284 -13.99019869 4.26797351 -16 4 C-15.38125 3.71125 -14.7625 3.4225 -14.125 3.125 C-11.86674235 2.06279958 -11.86674235 2.06279958 -10 0 C-6.49555486 -1.3767463 -3.62123372 -0.7407069 0 0 Z " fill="#F1F1F2" transform="translate(578,807)"/>
<path d="M0 0 C13.86 0.33 27.72 0.66 42 1 C42 1.33 42 1.66 42 2 C30.78 2 19.56 2 8 2 C8.33 3.65 8.66 5.3 9 7 C9.08170868 8.59511805 9.1179254 10.19307985 9.11352539 11.7902832 C9.11344986 12.71086014 9.11337433 13.63143707 9.11329651 14.57991028 C9.10813522 15.5602977 9.10297394 16.54068512 9.09765625 17.55078125 C9.0962413 18.56472458 9.09482635 19.57866791 9.09336853 20.62333679 C9.08778328 23.85308821 9.07523345 27.08276962 9.0625 30.3125 C9.0574831 32.50585837 9.05292052 34.69921783 9.04882812 36.89257812 C9.03781868 42.26174253 9.0210952 47.63086626 9 53 C8.67 53 8.34 53 8 53 C7.98786972 52.16434761 7.98786972 52.16434761 7.97549438 51.31181335 C7.88952732 45.52054773 7.79002739 39.7296275 7.68261719 33.9387207 C7.64430196 31.77667027 7.6094536 29.61455553 7.578125 27.45239258 C7.53252983 24.34693396 7.47452616 21.24191901 7.4140625 18.13671875 C7.40251129 17.16788254 7.39096008 16.19904633 7.37905884 15.20085144 C7.3492543 13.84979057 7.3492543 13.84979057 7.31884766 12.47143555 C7.30552399 11.67867722 7.29220032 10.88591888 7.2784729 10.06913757 C7.11286418 7.69396892 7.11286418 7.69396892 5 5 C2.44816596 3.79549696 2.44816596 3.79549696 0 3 C0 2.01 0 1.02 0 0 Z " fill="#FAFAFB" transform="translate(272,807)"/>
<path d="M0 0 C0.33 0 0.66 0 1 0 C1 2.31 1 4.62 1 7 C-14.51 7 -30.02 7 -46 7 C-45.67 5.68 -45.34 4.36 -45 3 C-42.36 3 -39.72 3 -37 3 C-37 3.33 -37 3.66 -37 4 C-18.685 4.495 -18.685 4.495 0 5 C0 3.35 0 1.7 0 0 Z " fill="#FBFBFB" transform="translate(448,861)"/>
<path d="M0 0 C1.32 0.33 2.64 0.66 4 1 C4 6.94 4 12.88 4 19 C2.68 19 1.36 19 0 19 C-0.20625 18.236875 -0.4125 17.47375 -0.625 16.6875 C-2.42070704 13.17770897 -4.43136312 12.47400219 -8 11 C-8 10.01 -8 9.02 -8 8 C-7.401875 7.71125 -6.80375 7.4225 -6.1875 7.125 C-2.36322376 5.33106827 -2.36322376 5.33106827 -0.3125 1.875 C-0.209375 1.25625 -0.10625 0.6375 0 0 Z " fill="#ECEDEE" transform="translate(814,827)"/>
<path d="M0 0 C0.99 0.33 1.98 0.66 3 1 C3 6.94 3 12.88 3 19 C1.68 19.33 0.36 19.66 -1 20 C-1.66 18.02 -2.32 16.04 -3 14 C-6.96 13.67 -10.92 13.34 -15 13 C-15 12.67 -15 12.34 -15 12 C-11.7 11.67 -8.4 11.34 -5 11 C-4.731875 10.29875 -4.46375 9.5975 -4.1875 8.875 C-2.9318551 5.8350176 -1.49764877 2.9272226 0 0 Z " fill="#E6E7E9" transform="translate(308,827)"/>
<path d="M0 0 C1.65 0 3.3 0 5 0 C5 0.33 5 0.66 5 1 C24.305 1.495 24.305 1.495 44 2 C44.33 1.34 44.66 0.68 45 0 C45 1.32 45 2.64 45 4 C29.82 4 14.64 4 -1 4 C-0.67 2.68 -0.34 1.36 0 0 Z " fill="#FAFBFB" transform="translate(482,864)"/>
<path d="M0 0 C1.65 0 3.3 0 5 0 C5 0.33 5 0.66 5 1 C10.37480473 1.19209289 15.74982255 1.37084171 21.12548828 1.53710938 C22.95503709 1.59559255 24.78447212 1.65775332 26.61376953 1.72363281 C29.23969815 1.81756847 31.86574886 1.89837127 34.4921875 1.9765625 C35.31306854 2.00875885 36.13394958 2.0409552 36.97970581 2.0741272 C38.9859173 2.12733115 40.99441169 2.07301195 43 2 C43.66 1.34 44.32 0.68 45 0 C45 1.32 45 2.64 45 4 C30.15 4 15.3 4 0 4 C0 2.68 0 1.36 0 0 Z " fill="#FBFBFB" transform="translate(272,864)"/>
<path d="M0 0 C0.33 0.99 0.66 1.98 1 3 C0.67 3.66 0.34 4.32 0 5 C5.28 5 10.56 5 16 5 C16 5.33 16 5.66 16 6 C12.7 6.33 9.4 6.66 6 7 C10.06368679 7.77403558 13.86425173 8.0984702 18 8 C18 8.99 18 9.98 18 11 C11.07 11 4.14 11 -3 11 C-3 10.01 -3 9.02 -3 8 C-3.99 8.33 -4.98 8.66 -6 9 C-5.67 7.02 -5.34 5.04 -5 3 C-4.360625 2.87625 -3.72125 2.7525 -3.0625 2.625 C-2.0415625 2.315625 -2.0415625 2.315625 -1 2 C-0.67 1.34 -0.34 0.68 0 0 Z " fill="#FAF9FA" transform="translate(671,839)"/>
<path d="M0 0 C0.99 0.33 1.98 0.66 3 1 C1.68 1.33 0.36 1.66 -1 2 C1.83527296 5.80047227 4.83326395 8.64507044 8.5625 11.5625 C11.87934704 14.1592717 14.639519 16.49504336 17 20 C8.93188691 18.30144988 2.90968402 16.06994499 -2 9 C-1.01 9 -0.02 9 1 9 C-0.32 7.02 -1.64 5.04 -3 3 C-2.01 2.01 -1.02 1.02 0 0 Z " fill="#111821" transform="translate(549,231)"/>
<path d="M0 0 C3.63 0 7.26 0 11 0 C11 0.33 11 0.66 11 1 C7.7 1 4.4 1 1 1 C2.00836062 2.23267348 2.00836062 2.23267348 4.06640625 2.09765625 C4.89011719 2.08605469 5.71382812 2.07445312 6.5625 2.0625 C7.80193359 2.04896484 7.80193359 2.04896484 9.06640625 2.03515625 C10.02353516 2.01775391 10.02353516 2.01775391 11 2 C11 2.33 11 2.66 11 3 C8.36 3 5.72 3 3 3 C3 8.94 3 14.88 3 21 C6.96 21.33 10.92 21.66 15 22 C12.38826365 24.61173635 11.12801112 24.2981789 7.5 24.3125 C6.5203125 24.32925781 5.540625 24.34601562 4.53125 24.36328125 C3.6959375 24.24339844 2.860625 24.12351562 2 24 C-0.16926659 20.74610012 -0.24080049 19.86604043 -0.1953125 16.11328125 C-0.18886719 15.17548828 -0.18242188 14.23769531 -0.17578125 13.27148438 C-0.15902344 12.29501953 -0.14226563 11.31855469 -0.125 10.3125 C-0.11597656 9.32443359 -0.10695313 8.33636719 -0.09765625 7.31835938 C-0.07408566 4.87880294 -0.03821469 2.43937099 0 0 Z " fill="#202732" transform="translate(798,839)"/>
<path d="M0 0 C1.32 0.33 2.64 0.66 4 1 C4 6.94 4 12.88 4 19 C2.68 19.33 1.36 19.66 0 20 C-0.268125 19.05125 -0.53625 18.1025 -0.8125 17.125 C-1.74986588 13.74732727 -1.74986588 13.74732727 -5 12 C-4.01 11.67 -3.02 11.34 -2 11 C-1.01 11.66 -0.02 12.32 1 13 C0.855625 11.72125 0.71125 10.4425 0.5625 9.125 C0.44068359 8.04605469 0.44068359 8.04605469 0.31640625 6.9453125 C0.08707039 4.92595684 0.08707039 4.92595684 -1 3 C-0.67 2.01 -0.34 1.02 0 0 Z " fill="#E0E0E2" transform="translate(517,827)"/>
<path d="M0 0 C4.52065428 -0.049377 9.04115217 -0.08570823 13.56201172 -0.10986328 C15.10045098 -0.11993118 16.63887107 -0.13358646 18.17724609 -0.15087891 C20.38644133 -0.17509317 22.59538395 -0.18647491 24.8046875 -0.1953125 C25.49432587 -0.20563507 26.18396423 -0.21595764 26.89450073 -0.22659302 C28.59800906 -0.22699478 30.30085943 -0.12191026 32 0 C32.66 0.66 33.32 1.32 34 2 C33.01 2 32.02 2 31 2 C31.33 3.98 31.66 5.96 32 8 C30.5 6.6875 30.5 6.6875 29 5 C29 4.01 29 3.02 29 2 C24.52084672 1.97113662 20.04171709 1.95324813 15.5625 1.9375 C14.28310547 1.92912109 13.00371094 1.92074219 11.68554688 1.91210938 C10.47060547 1.90888672 9.25566406 1.90566406 8.00390625 1.90234375 C6.87799072 1.89710693 5.7520752 1.89187012 4.59204102 1.88647461 C2.07029129 1.70454552 2.07029129 1.70454552 1 3 C1.99 3.33 2.98 3.66 4 4 C2.68 4 1.36 4 0 4 C0 2.68 0 1.36 0 0 Z " fill="#F8F8F9" transform="translate(203,807)"/>
<path d="M0 0 C0.66 0 1.32 0 2 0 C2 4.29 2 8.58 2 13 C0.68 13 -0.64 13 -2 13 C-2.5878125 11.576875 -2.5878125 11.576875 -3.1875 10.125 C-5.19793856 6.65872662 -6.22699642 6.0197307 -10 5 C-7.44931155 2.64551835 -6.28982642 2.01672076 -2.75 1.8125 C-1.38875 1.9053125 -1.38875 1.9053125 0 2 C0 1.34 0 0.68 0 0 Z " fill="#F7F7F8" transform="translate(315,808)"/>
<path d="M0 0 C17.16 0.33 34.32 0.66 52 1 C52 1.33 52 1.66 52 2 C35.5 2 19 2 2 2 C2 4.31 2 6.62 2 9 C1.34 10.32 0.68 11.64 0 13 C0 8.71 0 4.42 0 0 Z " fill="#FCFCFC" transform="translate(715,807)"/>
<path d="M0 0 C0.33 0 0.66 0 1 0 C1.00808685 0.65288498 1.01617371 1.30576996 1.02450562 1.97843933 C1.11058374 8.77561881 1.21008916 15.57250776 1.31738281 22.36938477 C1.35565843 24.90579345 1.39051376 27.44225616 1.421875 29.97875977 C1.46755563 33.62535911 1.5255463 37.27158702 1.5859375 40.91796875 C1.59748871 42.05147263 1.60903992 43.1849765 1.62094116 44.35282898 C1.6507457 45.94391228 1.6507457 45.94391228 1.68115234 47.56713867 C1.69447601 48.49757492 1.70779968 49.42801117 1.7215271 50.38664246 C2.02579157 53.24204368 2.83892792 55.38518329 4 58 C4.33 58.99 4.66 59.98 5 61 C2 60 2 60 1.0533905 58.35670471 C-1.17743414 51.79072633 -1.31488773 45.85237531 -1.07421875 38.96484375 C-1.04777786 37.84557999 -1.02133698 36.72631622 -0.99409485 35.57313538 C-0.90690647 32.02734543 -0.79755583 28.48264638 -0.6875 24.9375 C-0.6241816 22.52152244 -0.56231765 20.10550629 -0.50195312 17.68945312 C-0.35145834 11.79241808 -0.18280415 5.89611723 0 0 Z " fill="#D0D3D6" transform="translate(761,691)"/>
<path d="M0 0 C1.73443359 0.00676758 1.73443359 0.00676758 3.50390625 0.01367188 C6.33599225 0.02537471 9.16796811 0.04177004 12 0.0625 C12 0.3925 12 0.7225 12 1.0625 C14.97 1.3925 17.94 1.7225 21 2.0625 C21 2.3925 21 2.7225 21 3.0625 C15.82218777 3.08727057 10.64441025 3.10539347 5.46655273 3.11743164 C3.70612995 3.1224517 1.94571132 3.1292691 0.18530273 3.13793945 C-2.34913154 3.15010703 -4.88351054 3.15575166 -7.41796875 3.16015625 C-8.20149216 3.16531754 -8.98501556 3.17047882 -9.7922821 3.17579651 C-13.65591139 3.17619066 -17.245165 3.0069276 -21 2.0625 C-21 1.7325 -21 1.4025 -21 1.0625 C-13.97942879 -0.03016243 -7.09531697 -0.05282882 0 0 Z " fill="#262F3B" transform="translate(668,567.9375)"/>
<path d="M0 0 C0 4.62 0 9.24 0 14 C-1.32 14 -2.64 14 -4 14 C-4.33 12.35 -4.66 10.7 -5 9 C-4.34 9 -3.68 9 -3 9 C-2.505 10.485 -2.505 10.485 -2 12 C-2 8.7 -2 5.4 -2 2 C-3.38960937 2.17402344 -4.77921875 2.34804688 -6.2109375 2.52734375 C-12.38800021 3.14505002 -18.43645849 2.88959788 -24.625 2.5625 C-25.72457031 2.51029297 -26.82414062 2.45808594 -27.95703125 2.40429688 C-30.63841122 2.27605696 -33.31927531 2.14117502 -36 2 C-36 1.67 -36 1.34 -36 1 C-23.97880747 0.31025945 -12.04180152 -0.11149816 0 0 Z " fill="#FCFCFC" transform="translate(526,807)"/>
<path d="M0 0 C3.31248078 -0.02945031 6.62492711 -0.04694801 9.9375 -0.0625 C10.86369141 -0.07087891 11.78988281 -0.07925781 12.74414062 -0.08789062 C18.58300303 -0.10837786 24.20913053 0.24570213 30 1 C26.15461081 3.56063934 22.17528152 3.25509461 17.734375 3.1953125 C16.94097717 3.1924826 16.14757935 3.18965271 15.33013916 3.18673706 C12.80327083 3.17556779 10.27676068 3.15046944 7.75 3.125 C6.0338593 3.11496598 4.31771302 3.10584087 2.6015625 3.09765625 C-1.59909574 3.07563914 -5.7994872 3.04113187 -10 3 C-10 2.67 -10 2.34 -10 2 C-6.7 1.67 -3.4 1.34 0 1 C0 0.67 0 0.34 0 0 Z " fill="#202935" transform="translate(403,567)"/>
<path d="M0 0 C2.31 0.33 4.62 0.66 7 1 C6.67 1.66 6.34 2.32 6 3 C5.01 3 4.02 3 3 3 C3.33 8.61 3.66 14.22 4 20 C2.68 19.67 1.36 19.34 0 19 C0 12.73 0 6.46 0 0 Z " fill="#1E222B" transform="translate(222,842)"/>
<path d="M0 0 C3.5875213 1.33250791 6.8364623 2.830717 10 5 C10 5.66 10 6.32 10 7 C11.32 7.33 12.64 7.66 14 8 C14 8.66 14 9.32 14 10 C14.5775 10.28875 15.155 10.5775 15.75 10.875 C18.875 12.4375 18.875 12.4375 22 14 C22 14.66 22 15.32 22 16 C23.32 16.33 24.64 16.66 26 17 C26 17.66 26 18.32 26 19 C27.65 19.66 29.3 20.32 31 21 C31 21.99 31 22.98 31 24 C24.66450007 19.90072517 18.62629263 15.52797148 12.6875 10.875 C11.90310547 10.26785156 11.11871094 9.66070312 10.31054688 9.03515625 C6.6683836 6.19445456 3.15106376 3.39605264 0 0 Z " fill="#EBECED" transform="translate(601,411)"/>
<path d="M0 0 C0.74886475 0.00523682 1.49772949 0.01047363 2.26928711 0.01586914 C3.07817383 0.0190918 3.88706055 0.02231445 4.72045898 0.02563477 C5.5705957 0.03401367 6.42073242 0.04239258 7.29663086 0.05102539 C8.15063477 0.05553711 9.00463867 0.06004883 9.88452148 0.06469727 C12.00108749 0.07652166 14.11761771 0.0944577 16.23413086 0.11352539 C16.23413086 0.44352539 16.23413086 0.77352539 16.23413086 1.11352539 C21.84413086 1.44352539 27.45413086 1.77352539 33.23413086 2.11352539 C33.23413086 2.44352539 33.23413086 2.77352539 33.23413086 3.11352539 C28.42864489 3.16289422 23.62330592 3.19922982 18.81762695 3.22338867 C17.18218414 3.23345793 15.54675937 3.2471142 13.91137695 3.2644043 C11.56318716 3.28861244 9.21523498 3.29999897 6.86694336 3.30883789 C5.76686447 3.32432175 5.76686447 3.32432175 4.64456177 3.34011841 C2.83950389 3.34051908 1.03505256 3.23565294 -0.76586914 3.11352539 C-1.42586914 2.45352539 -2.08586914 1.79352539 -2.76586914 1.11352539 C-1.76586914 0.11352539 -1.76586914 0.11352539 0 0 Z " fill="#1F2733" transform="translate(607.765869140625,566.886474609375)"/>
<path d="M0 0 C13.2 0 26.4 0 40 0 C35.88055126 3.08958656 35.29875785 3.37815298 30.52734375 3.36328125 C28.92922852 3.36231445 28.92922852 3.36231445 27.29882812 3.36132812 C25.6349707 3.3371582 25.6349707 3.3371582 23.9375 3.3125 C22.85533203 3.31572266 21.77316406 3.31894531 20.65820312 3.32226562 C13.57609163 3.27553304 6.91728241 2.51188445 0 1 C0 0.67 0 0.34 0 0 Z " fill="#0C101A" transform="translate(421,338)"/>
<path d="M0 0 C3.80133442 1.67923025 6.97082702 4.11462834 10.25 6.625 C10.80429687 7.04523438 11.35859375 7.46546875 11.9296875 7.8984375 C13.28866663 8.92938719 14.64463835 9.96429911 16 11 C15.01 9.68 14.02 8.36 13 7 C13.33 6.34 13.66 5.68 14 5 C17.96 8.96 21.92 12.92 26 17 C25.34 17.33 24.68 17.66 24 18 C15.6856599 13.7056493 5.24441793 7.8666269 0 0 Z " fill="#0B0E15" transform="translate(318,140)"/>
<path d="M0 0 C0.33 0.99 0.66 1.98 1 3 C-6.43541001 7.02751375 -13.48682302 9.34836033 -22 8 C-24.328125 6.4765625 -24.328125 6.4765625 -26 5 C-24.7934375 4.97421875 -23.586875 4.9484375 -22.34375 4.921875 C-20.72913262 4.86555114 -19.11455067 4.8082048 -17.5 4.75 C-16.70851563 4.73582031 -15.91703125 4.72164062 -15.1015625 4.70703125 C-9.12323908 4.462018 -5.19127467 2.97664832 0 0 Z " fill="#20242D" transform="translate(577,864)"/>
<path d="M0 0 C6.27 0 12.54 0 19 0 C21.25 6.75 21.25 6.75 20 11 C19.67 11 19.34 11 19 11 C19 8.36 19 5.72 19 3 C14.05 3 9.1 3 4 3 C4 2.34 4 1.68 4 1 C2.68 0.67 1.36 0.34 0 0 Z " fill="#212831" transform="translate(805,606)"/>
<path d="M0 0 C1.65 0 3.3 0 5 0 C5 0.66 5 1.32 5 2 C11.6 2 18.2 2 25 2 C25 2.66 25 3.32 25 4 C16.75 4 8.5 4 0 4 C0 2.68 0 1.36 0 0 Z " fill="#F9F9F9" transform="translate(203,864)"/>
<path d="M0 0 C2.475 0.495 2.475 0.495 5 1 C5 1.99 5 2.98 5 4 C-3.58 4 -12.16 4 -21 4 C-20.67 3.01 -20.34 2.02 -20 1 C-20 1.66 -20 2.32 -20 3 C-19.01 2.67 -18.02 2.34 -17 2 C-15.66636297 1.85596652 -14.32781954 1.75409577 -12.98828125 1.68359375 C-12.23095703 1.64169922 -11.47363281 1.59980469 -10.69335938 1.55664062 C-9.90767578 1.51732422 -9.12199219 1.47800781 -8.3125 1.4375 C-7.51521484 1.39431641 -6.71792969 1.35113281 -5.89648438 1.30664062 C-3.93118553 1.20072632 -1.96561504 1.09987449 0 1 C0 0.67 0 0.34 0 0 Z " fill="#FAFAFB" transform="translate(388,864)"/>
<path d="M0 0 C1.32 0.33 2.64 0.66 4 1 C4 1.99 4 2.98 4 4 C-4.58 4 -13.16 4 -22 4 C-21.67 3.01 -21.34 2.02 -21 1 C-14.07 1.33 -7.14 1.66 0 2 C0 1.34 0 0.68 0 0 Z " fill="#FCFCFC" transform="translate(709,864)"/>
<path d="M0 0 C9.9 0 19.8 0 30 0 C30 4.62 30 9.24 30 14 C29.01 13.67 28.02 13.34 27 13 C27.66 13 28.32 13 29 13 C28.649375 12.38125 28.29875 11.7625 27.9375 11.125 C27.4734375 10.073125 27.4734375 10.073125 27 9 C27.33 8.34 27.66 7.68 28 7 C28 5.02 28 3.04 28 1 C18.76 1 9.52 1 0 1 C0 0.67 0 0.34 0 0 Z " fill="#FCFCFC" transform="translate(619,808)"/>
<path d="M0 0 C6.0546875 -0.1953125 6.0546875 -0.1953125 8 0 C8.66 0.66 9.32 1.32 10 2 C9.01 2 8.02 2 7 2 C7 2.66 7 3.32 7 4 C5.68945377 5.35573748 4.35251497 6.68612831 3 8 C2.01 9.32 1.02 10.64 0 12 C0 8.04 0 4.08 0 0 Z " fill="#F3F2F4" transform="translate(596,809)"/>
<path d="M0 0 C1.051875 0.2475 1.051875 0.2475 2.125 0.5 C5.13888194 1.02415338 7.94713625 1.07099683 11 1 C10.01 1.66 9.02 2.32 8 3 C8.33 3.66 8.66 4.32 9 5 C11.58605332 5.4683265 11.58605332 5.4683265 14.5625 5.625 C15.57441406 5.69976563 16.58632813 5.77453125 17.62890625 5.8515625 C18.80259766 5.92503906 18.80259766 5.92503906 20 6 C20 6.33 20 6.66 20 7 C14.06 7 8.12 7 2 7 C1 4 1 4 2 1 C1.34 0.67 0.68 0.34 0 0 Z " fill="#EAEBEC" transform="translate(329,562)"/>
<path d="M0 0 C2.12472576 -0.05386629 4.24983652 -0.09273071 6.375 -0.125 C7.55835938 -0.14820313 8.74171875 -0.17140625 9.9609375 -0.1953125 C13 0 13 0 15 2 C14 3 14 3 11.27734375 3.09765625 C9.62412109 3.08025391 9.62412109 3.08025391 7.9375 3.0625 C6.28041016 3.04896484 6.28041016 3.04896484 4.58984375 3.03515625 C3.73519531 3.02355469 2.88054687 3.01195312 2 3 C2 4.98 2 6.96 2 9 C1.67 9 1.34 9 1 9 C0.67 6.03 0.34 3.06 0 0 Z " fill="#1F252F" transform="translate(292,812)"/>
<path d="M0 0 C0.33 0 0.66 0 1 0 C1 7.26 1 14.52 1 22 C4.96 22 8.92 22 13 22 C9 25 9 25 0 24 C0 16.08 0 8.16 0 0 Z " fill="#FCFCFC" transform="translate(290,812)"/>
<path d="M0 0 C-0.33 0.66 -0.66 1.32 -1 2 C-7.6 2 -14.2 2 -21 2 C-21 1.34 -21 0.68 -21 0 C-18.06281233 -0.19461488 -15.12550068 -0.38097593 -12.1875 -0.5625 C-11.35412109 -0.61857422 -10.52074219 -0.67464844 -9.66210938 -0.73242188 C-8.85966797 -0.78076172 -8.05722656 -0.82910156 -7.23046875 -0.87890625 C-6.49207764 -0.9260376 -5.75368652 -0.97316895 -4.99291992 -1.02172852 C-3 -1 -3 -1 0 0 Z " fill="#FBFBFB" transform="translate(690,461)"/>
<path d="M0 0 C0.66 0.33 1.32 0.66 2 1 C2 6.94 2 12.88 2 19 C0.68 19 -0.64 19 -2 19 C-1.505 17.515 -1.505 17.515 -1 16 C-0.95495823 13.44950979 -0.95209585 10.92350075 -1 8.375 C-1.0458188 5.90994869 -1.04709385 3.46654055 -1 1 C-0.67 0.67 -0.34 0.34 0 0 Z " fill="#DDDFE1" transform="translate(816,827)"/>
<path d="M0 0 C2.97 0.495 2.97 0.495 6 1 C6 2.32 6 3.64 6 5 C0.39 5 -5.22 5 -11 5 C-10.67 4.34 -10.34 3.68 -10 3 C-6.7 3 -3.4 3 0 3 C0 2.01 0 1.02 0 0 Z " fill="#FCFCFC" transform="translate(345,863)"/>
<path d="M0 0 C0.33 0.99 0.66 1.98 1 3 C-0.57894208 5.36841312 -1.9754262 7.06745228 -4 9 C-4.33 8.67 -4.66 8.34 -5 8 C-5.66 8.66 -6.32 9.32 -7 10 C-7.93423645 6.98968256 -8.04449911 6.13349732 -7 3 C-6.01 3 -5.02 3 -4 3 C-3.67 2.34 -3.34 1.68 -3 1 C-2.01 0.67 -1.02 0.34 0 0 Z " fill="#ECEDEE" transform="translate(357,822)"/>
<path d="M0 0 C0.66 0.33 1.32 0.66 2 1 C1.34 1.66 0.68 2.32 0 3 C4.95 3.33 9.9 3.66 15 4 C15 4.33 15 4.66 15 5 C11.00204108 5.95619733 7.29196078 6.1039592 3.1875 6.0625 C2.02605469 6.05347656 0.86460937 6.04445313 -0.33203125 6.03515625 C-1.21246094 6.02355469 -2.09289062 6.01195312 -3 6 C-3 3 -3 3 -1.5 1.3125 C-0.7575 0.6628125 -0.7575 0.6628125 0 0 Z " fill="#FAFBFB" transform="translate(339,457)"/>
<path d="M0 0 C8.58 0 17.16 0 26 0 C26.33 1.32 26.66 2.64 27 4 C25.35 4.33 23.7 4.66 22 5 C22 4.34 22 3.68 22 3 C22.99 3 23.98 3 25 3 C25 2.34 25 1.68 25 1 C16.75 1 8.5 1 0 1 C0 0.67 0 0.34 0 0 Z " fill="#777C83" transform="translate(404,806)"/>
<path d="M0 0 C-5.47658194 3.08680073 -10.57168287 5.40010273 -17 5 C-17.66 4.34 -18.32 3.68 -19 3 C-16.21019334 2.30404181 -13.41859396 1.61793326 -10.625 0.9375 C-9.43390625 0.63875977 -9.43390625 0.63875977 -8.21875 0.33398438 C-2.2265625 -1.11328125 -2.2265625 -1.11328125 0 0 Z " fill="#E9EAEB" transform="translate(383,389)"/>
<path d="M0 0 C0.33 0.99 0.66 1.98 1 3 C0.67 3.66 0.34 4.32 0 5 C4.29 5 8.58 5 13 5 C13 5.66 13 6.32 13 7 C8.05 7 3.1 7 -2 7 C-1.34 4.69 -0.68 2.38 0 0 Z " fill="#2D3035" transform="translate(353,837)"/>
<path d="M0 0 C5.28 0 10.56 0 16 0 C16 0.33 16 0.66 16 1 C9.565 1.495 9.565 1.495 3 2 C3.99 3.32 4.98 4.64 6 6 C5.67 6.66 5.34 7.32 5 8 C2.5 5.6875 2.5 5.6875 0 3 C0 2.01 0 1.02 0 0 Z " fill="#FAFAFB" transform="translate(382,314)"/>
<path d="M0 0 C0.33 0 0.66 0 1 0 C1.95619733 3.99795892 2.1039592 7.70803922 2.0625 11.8125 C2.05347656 12.97394531 2.04445313 14.13539063 2.03515625 15.33203125 C2.02355469 16.21246094 2.01195312 17.09289062 2 18 C1.01 17.67 0.02 17.34 -1 17 C-1.02709444 14.91673869 -1.04643873 12.83337559 -1.0625 10.75 C-1.07410156 9.58984375 -1.08570313 8.4296875 -1.09765625 7.234375 C-1.01782092 4.59022872 -0.78643778 2.50173909 0 0 Z " fill="#212835" transform="translate(826,624)"/>
<path d="M0 0 C1.98 0.495 1.98 0.495 4 1 C3.34 1 2.68 1 2 1 C2 1.66 2 2.32 2 3 C7.28 3.33 12.56 3.66 18 4 C18 4.33 18 4.66 18 5 C11.73 5 5.46 5 -1 5 C-0.67 3.35 -0.34 1.7 0 0 Z " fill="#FBFCFB" transform="translate(699,564)"/>
<path d="M0 0 C0.33 0 0.66 0 1 0 C1.02708567 1.60407328 1.04643483 3.2082785 1.0625 4.8125 C1.07410156 5.70582031 1.08570313 6.59914063 1.09765625 7.51953125 C1 10 1 10 0 13 C-0.03920815 14.99961564 -0.04443347 17.00049364 0 19 C-0.99 18.67 -1.98 18.34 -3 18 C-2.67 13.71 -2.34 9.42 -2 5 C-1.67 5 -1.34 5 -1 5 C-0.67 3.35 -0.34 1.7 0 0 Z " fill="#202732" transform="translate(654,262)"/>
<path d="M0 0 C0.78503906 0.13277344 1.57007813 0.26554687 2.37890625 0.40234375 C7.91187987 1.33242643 13.44073841 2.24191887 19 3 C15.86588698 5.08940868 15.02549528 5.27364412 11.4375 5.25 C10.25994141 5.25773437 10.25994141 5.25773437 9.05859375 5.265625 C7 5 7 5 5 3 C3.35008418 2.29289322 1.68437744 1.62056011 0 1 C0 0.67 0 0.34 0 0 Z " fill="#090C13" transform="translate(371,265)"/>
<path d="M0 0 C3.16451962 0.63432938 5.51687779 1.73182928 8.25 3.4375 C8.95640625 3.86933594 9.6628125 4.30117187 10.390625 4.74609375 C10.92171875 5.15988281 11.4528125 5.57367188 12 6 C12 6.66 12 7.32 12 8 C10.35 7.67 8.7 7.34 7 7 C7 6.34 7 5.68 7 5 C5.35 4.67 3.7 4.34 2 4 C1.67 4.99 1.34 5.98 1 7 C0.67 4.69 0.34 2.38 0 0 Z " fill="#EBECED" transform="translate(311,198)"/>
<path d="M0 0 C0.433125 0.66 0.86625 1.32 1.3125 2 C2.1478125 2.99 2.1478125 2.99 3 4 C3.99 4 4.98 4 6 4 C5.67 5.65 5.34 7.3 5 9 C2.69 8.67 0.38 8.34 -2 8 C-1.34 5.36 -0.68 2.72 0 0 Z " fill="#EAEBED" transform="translate(342,848)"/>
<path d="M0 0 C5.28 0 10.56 0 16 0 C16.33 0.99 16.66 1.98 17 3 C14.91731407 3.08126087 12.83371342 3.13930839 10.75 3.1875 C9.00976562 3.23970703 9.00976562 3.23970703 7.234375 3.29296875 C4 3 4 3 0 0 Z " fill="#1F2834" transform="translate(775,675)"/>
<path d="M0 0 C0 0.66 0 1.32 0 2 C-2.52475462 3.26237731 -4.31200466 3.09856404 -7.125 3.0625 C-8.03507812 3.05347656 -8.94515625 3.04445313 -9.8828125 3.03515625 C-10.58148438 3.02355469 -11.28015625 3.01195312 -12 3 C-11.67 2.01 -11.34 1.02 -11 0 C-3.375 -1.125 -3.375 -1.125 0 0 Z " fill="#E6E7E9" transform="translate(321,565)"/>
<path d="M0 0 C2.475 0.495 2.475 0.495 5 1 C4.67 1.66 4.34 2.32 4 3 C3.01 3 2.02 3 1 3 C1.33 8.61 1.66 14.22 2 20 C1.34 20 0.68 20 0 20 C0 13.4 0 6.8 0 0 Z " fill="#212A36" transform="translate(224,842)"/>
<path d="M0 0 C0.33 0 0.66 0 1 0 C1.33 5.61 1.66 11.22 2 17 C2.33 17 2.66 17 3 17 C3 18.65 3 20.3 3 22 C2.01 21.67 1.02 21.34 0 21 C0 14.07 0 7.14 0 0 Z " fill="#1F2833" transform="translate(379,678)"/>
<path d="M0 0 C-1.52059907 3.88014936 -3.86078531 5.73906562 -7.125 8.25 C-8.03507813 8.95640625 -8.94515625 9.6628125 -9.8828125 10.390625 C-10.58148437 10.92171875 -11.28015625 11.4528125 -12 12 C-12 9 -12 9 -9.8828125 6.73828125 C-8.97273437 5.93777344 -8.06265625 5.13726562 -7.125 4.3125 C-5.76761719 3.10013672 -5.76761719 3.10013672 -4.3828125 1.86328125 C-2 0 -2 0 0 0 Z " fill="#EBEBEC" transform="translate(606,360)"/>
<path d="M0 0 C0.99 0.33 1.98 0.66 3 1 C2.34 1 1.68 1 1 1 C0.86722656 1.61488281 0.73445312 2.22976563 0.59765625 2.86328125 C0.33275391 4.07564453 0.33275391 4.07564453 0.0625 5.3125 C-0.11152344 6.11300781 -0.28554688 6.91351562 -0.46484375 7.73828125 C-1 10 -1 10 -2 13 C-2.66 13 -3.32 13 -4 13 C-3.71682074 11.39431334 -3.42312209 9.79047953 -3.125 8.1875 C-2.96257813 7.29417969 -2.80015625 6.40085937 -2.6328125 5.48046875 C-2 3 -2 3 0 0 Z " fill="#E6E8E9" transform="translate(677,822)"/>
<path d="M0 0 C0.66 0.33 1.32 0.66 2 1 C2 1.99 2 2.98 2 4 C1.34 4 0.68 4 0 4 C0.20625 4.5775 0.4125 5.155 0.625 5.75 C1.09947744 8.59686462 0.54709078 9.60200929 -1 12 C-1.98648001 13.01333962 -2.98477777 14.01545756 -4 15 C-3.52229477 13.06213915 -3.04278429 11.12472326 -2.5625 9.1875 C-2.29566406 8.10855469 -2.02882813 7.02960937 -1.75390625 5.91796875 C-1.23922588 3.9259157 -0.65062825 1.95188476 0 0 Z " fill="#E7E8EA" transform="translate(387,655)"/>
<path d="M0 0 C1.65 0.33 3.3 0.66 5 1 C4.67 3.31 4.34 5.62 4 8 C1 7 1 7 -0.25 4.5625 C-1 2 -1 2 0 0 Z " fill="#E6E8E9" transform="translate(525,853)"/>
<path d="M0 0 C2 2 2 2 2.1953125 4.1640625 C2.17210937 4.97617187 2.14890625 5.78828125 2.125 6.625 C2.10695313 7.44226563 2.08890625 8.25953125 2.0703125 9.1015625 C2.03550781 10.04128906 2.03550781 10.04128906 2 11 C0.35 10.67 -1.3 10.34 -3 10 C-2.67 9.34 -2.34 8.68 -2 8 C-1.34 8.33 -0.68 8.66 0 9 C0 6.03 0 3.06 0 0 Z " fill="#CED0D4" transform="translate(578,812)"/>
<path d="M0 0 C0.66 1.32 1.32 2.64 2 4 C1.34 4 0.68 4 0 4 C0.226875 4.556875 0.45375 5.11375 0.6875 5.6875 C1.12979676 8.96049601 -0.06487514 10.41983352 -2 13 C-2.66 13 -3.32 13 -4 13 C-3.52140759 11.39566191 -3.04210442 9.79153584 -2.5625 8.1875 C-2.29566406 7.29417969 -2.02882813 6.40085937 -1.75390625 5.48046875 C-1.19612127 3.64526945 -0.60655425 1.81966274 0 0 Z " fill="#E6E7E9" transform="translate(650,679)"/>
<path d="M0 0 C-2.61478952 2.56761548 -3.94528576 2.9956345 -7.671875 3.29296875 C-9.03156035 3.27316751 -10.3910934 3.23759202 -11.75 3.1875 C-12.44738281 3.17396484 -13.14476562 3.16042969 -13.86328125 3.14648438 C-15.57585541 3.1112945 -17.28802941 3.05749155 -19 3 C-13.17454284 -0.24222277 -6.5491452 -0.1679268 0 0 Z " fill="#050910" transform="translate(461,338)"/>
<path d="M0 0 C3.94875582 1.31625194 4.54992713 3.05365398 6.6875 6.5625 C7.31011719 7.57441406 7.93273437 8.58632813 8.57421875 9.62890625 C9.04472656 10.41136719 9.51523437 11.19382812 10 12 C9.01 11.67 8.02 11.34 7 11 C7 10.34 7 9.68 7 9 C6.34 9 5.68 9 5 9 C2.82796 6.03812728 1.16438003 3.49314009 0 0 Z " fill="#ECECEE" transform="translate(341,635)"/>
<path d="M0 0 C-1 1.5 -1 1.5 -3 3 C-5.79873829 3.39491399 -8.13817454 3.227129 -11 3 C-11.66 2.34 -12.32 1.68 -13 1 C-8.61414671 0.29826347 -4.44209357 -0.10834375 0 0 Z " fill="#E5E7E8" transform="translate(459,606)"/>
<path d="M0 0 C-0.66 1.32 -1.32 2.64 -2 4 C-3.32 4 -4.64 4 -6 4 C-6.66 2.68 -7.32 1.36 -8 0 C-5.13822943 -1.43088528 -3.06624227 -0.59991697 0 0 Z " fill="#16202D" transform="translate(683,832)"/>
<path d="M0 0 C2.38224256 4.44685278 3.14021422 7.95228817 3 13 C1.12396022 10.18594033 0.50907198 8.59075334 -0.1875 5.375 C-0.36667969 4.57835937 -0.54585937 3.78171875 -0.73046875 2.9609375 C-0.81941406 2.31382812 -0.90835938 1.66671875 -1 1 C-0.67 0.67 -0.34 0.34 0 0 Z " fill="#EBEBED" transform="translate(682,825)"/>
<path d="M0 0 C3.96 0 7.92 0 12 0 C10.515 1.98 10.515 1.98 9 4 C6.03 3.01 3.06 2.02 0 1 C0 0.67 0 0.34 0 0 Z " fill="#080C13" transform="translate(329,455)"/>
<path d="M0 0 C3.3 0.33 6.6 0.66 10 1 C10.33 1.99 10.66 2.98 11 4 C7.7 3.67 4.4 3.34 1 3 C0.67 2.01 0.34 1.02 0 0 Z " fill="#E9EAEC" transform="translate(349,269)"/>
<path d="M0 0 C3.63 0 7.26 0 11 0 C11.33 1.32 11.66 2.64 12 4 C10.68 4 9.36 4 8 4 C7.67 3.34 7.34 2.68 7 2 C4.67843403 1.59270772 2.3431213 1.25561323 0 1 C0 0.67 0 0.34 0 0 Z " fill="#ECECED" transform="translate(221,809)"/>
<path d="M0 0 C1.60379341 -0.05416188 3.20811406 -0.09286638 4.8125 -0.125 C5.70582031 -0.14820313 6.59914063 -0.17140625 7.51953125 -0.1953125 C10 0 10 0 13 2 C11.58696762 2.2506019 10.16920526 2.47461921 8.75 2.6875 C7.96109375 2.81511719 7.1721875 2.94273437 6.359375 3.07421875 C3.37172981 2.98023653 2.19073117 1.95457437 0 0 Z " fill="#1C2733" transform="translate(302,394)"/>
<path d="M0 0 C2.9375 0.75 2.9375 0.75 6 2 C6.33 3.32 6.66 4.64 7 6 C4.36 5.34 1.72 4.68 -1 4 C-0.67 2.68 -0.34 1.36 0 0 Z " fill="#E2E2E3" transform="translate(222,862)"/>
<path d="M0 0 C0.66 0.33 1.32 0.66 2 1 C2.59355614 3.64860427 2.74209269 6.29197322 3 9 C2.34 8.01 1.68 7.02 1 6 C0.34 6.66 -0.32 7.32 -1 8 C-2 6 -2 6 -1.0625 2.875 C-0.5365625 1.451875 -0.5365625 1.451875 0 0 Z " fill="#15181E" transform="translate(358,822)"/>
<path d="M0 0 C4.29 0.66 8.58 1.32 13 2 C13 2.33 13 2.66 13 3 C7.06 3.495 7.06 3.495 1 4 C0.67 2.68 0.34 1.36 0 0 Z " fill="#E3E3E5" transform="translate(778,807)"/>
<path d="M0 0 C1.39195915 4.17587745 -0.17676781 6.13474776 -2 10 C-2.66 9.01 -3.32 8.02 -4 7 C-3.02391783 4.07175348 -1.89213369 2.38573379 0 0 Z " fill="#11151B" transform="translate(635,717)"/>
<path d="M0 0 C2 2 2 2 2.125 5.625 C2.08375 6.73875 2.0425 7.8525 2 9 C1.01 8.67 0.02 8.34 -1 8 C-1.125 2.25 -1.125 2.25 0 0 Z " fill="#1F252E" transform="translate(418,661)"/>
<path d="M0 0 C2.97 0.495 2.97 0.495 6 1 C4.75 2.5 4.75 2.5 3 4 C1.68 4 0.36 4 -1 4 C-0.67 2.68 -0.34 1.36 0 0 Z " fill="#ECEDEF" transform="translate(403,864)"/>
<path d="M0 0 C0.66 0.33 1.32 0.66 2 1 C-0.3125 3.5 -0.3125 3.5 -3 6 C-3.99 6 -4.98 6 -6 6 C-5.34 5.67 -4.68 5.34 -4 5 C-3.67 4.34 -3.34 3.68 -3 3 C-2 1 -2 1 0 0 Z " fill="#ECEDEF" transform="translate(580,859)"/>
<path d="M0 0 C1.98 0 3.96 0 6 0 C6.33 1.32 6.66 2.64 7 4 C5.35 4.33 3.7 4.66 2 5 C2 4.34 2 3.68 2 3 C2.99 3 3.98 3 5 3 C5 2.34 5 1.68 5 1 C3.35 1 1.7 1 0 1 C0 0.67 0 0.34 0 0 Z " fill="#B4B8BC" transform="translate(424,806)"/>
<path d="M0 0 C1.485 0.99 1.485 0.99 3 2 C3.1875 5.625 3.1875 5.625 3 9 C2.01 9.495 2.01 9.495 1 10 C-0.60725635 6.78548731 -0.05748185 3.56387464 0 0 Z " fill="#202933" transform="translate(510,676)"/>
<path d="M0 0 C2.64 0 5.28 0 8 0 C5.64031256 2.09749995 4.45383006 2.96905704 1.25 3.1875 C0.13625 3.0946875 0.13625 3.0946875 -1 3 C-0.67 2.01 -0.34 1.02 0 0 Z " fill="#E7E8E9" transform="translate(279,753)"/>
<path d="M0 0 C0.99 0 1.98 0 3 0 C3.66 2.64 4.32 5.28 5 8 C4.34 8 3.68 8 3 8 C0 2.25 0 2.25 0 0 Z " fill="#EAEBED" transform="translate(315,220)"/>
<path d="M0 0 C1.98 0 3.96 0 6 0 C5.01 0.66 4.02 1.32 3 2 C3.66 2.66 4.32 3.32 5 4 C3.35 4 1.7 4 0 4 C0 2.68 0 1.36 0 0 Z " fill="#FBFBFB" transform="translate(608,864)"/>
<path d="M0 0 C1.25541557 3.76624671 0.37061958 5.37188934 -1 9 C-1.33 8.34 -1.66 7.68 -2 7 C-2.66 6.67 -3.32 6.34 -4 6 C-3.67 5.34 -3.34 4.68 -3 4 C-2.34 4 -1.68 4 -1 4 C-0.67 2.68 -0.34 1.36 0 0 Z " fill="#E8E9EA" transform="translate(353,833)"/>
<path d="M0 0 C2 2 2 2 2.125 4.625 C2.08375 5.40875 2.0425 6.1925 2 7 C1.01 7 0.02 7 -1 7 C-0.67 4.69 -0.34 2.38 0 0 Z " fill="#20252E" transform="translate(325,673)"/>
<path d="M0 0 C0 0.33 0 0.66 0 1 C-1.98 1 -3.96 1 -6 1 C-6 1.66 -6 2.32 -6 3 C-7.65 3 -9.3 3 -11 3 C-8.21756596 -1.17365106 -4.53441502 -0.22300402 0 0 Z " fill="#080C13" transform="translate(606,617)"/>
<path d="M0 0 C5.75 1.875 5.75 1.875 8 3 C8 3.66 8 4.32 8 5 C4.5625 4.1875 4.5625 4.1875 1 3 C0.67 2.01 0.34 1.02 0 0 Z " fill="#E4E6E8" transform="translate(498,612)"/>
<path d="M0 0 C3.93673644 1.31224548 6.22719294 2.91910327 9 6 C4.75177626 5.52797514 2.80010291 3.03344482 0 0 Z " fill="#E9EAEB" transform="translate(617,407)"/>
</svg>
